<svg clip-rule="evenodd" fill-rule="evenodd" stroke-linejoin="round" stroke-miterlimit="2" viewBox="0 0 760 660" xmlns="http://www.w3.org/2000/svg"><g transform="matrix(.949474 0 0 .836141 14.5246 12.376)"><path d="m-15.297-14.801h800.443v789.341h-800.443z" fill="none"/><path d="m69.822 570.95c31.524 2.041 131.378-28.858 118.05-14.306-4.696 5.127-25.411 9.823-26.875 26.03-1.09 12.062 15.378 30.332 24.946 40.626 10.276 11.053 20.854 15.611 36.065 15.541 15.033-.068 22.781-2.592 43.887-14.292 8.698-4.821 25.441-12.029 27.942-12.029.271 0-.025.622-.656 1.382-.631.761-15.789 6.919-16.729 10.914-3.907 16.583 15.522 37.514 26.173 49.087 5.408 5.876 9.702 8.712 18.174 12.003 9.109 3.538 26.138 3.608 37.151.15 22.711-7.13 43.168-21.707 77.608-55.301 17.05-16.632 21.829-20.331 26.259-20.331 4.051 0 8.428 3.549 13.19 10.701 6.907 10.37 13.092 16.229 21.075 19.964 6.228 2.915 8.299 3.327 18.577 3.701 13.898.504 23.625-1.713 36.723-8.373 23.692-12.047 40.022-27.98 53.174-54.907 2.896-5.93 20.103-44.224 8.425-50.436-6.23-3.314-6.437-3.844 3.032-5.268 28.818-4.332 54.721-20.886 57.848-23.802 8.244-7.687 7.386-25.35 4.195-37.852-1.509-5.913-4.505-17.275-6.658-25.25s-17.19-43.403-18.168-49.45c-.265-1.644 1.333-2.548 10.173-5.757 57.505-20.87 96.911-73.638 94.685-126.793-1.011-24.164-24.528-76.95-31.797-80.262-5.016-2.286 6.348 21.011-.351 39.573-2 5.539-2.09 5.511-4.963-1.557-5.259-12.938-12.377-23.009-29.826-42.197-18.936-20.824-79.433-28.598-88.197 11.572-.66 3.025-.941 16.136-2.406 17.486-1.464 1.35-3.951-8.091-6.381-9.386-6.47-3.449-9.05 1.558-10.896 13.525-1.471 9.54-1.912 55.648-.602 62.95.862 4.803 2.368 4.143-14.254 6.249-4.675.593-9.588 1.368-10.919 1.723-2.097.56-2.309.391-1.596-1.265 8.58-19.945-7.661-75.112-18.16-98.38-.999-2.213-2.727-6.159-3.84-8.769-4.464-10.461 5.903 10.68-4.902 27.005-7.715 11.657-372.012 22.346-349.598 26.36 4.923.882 7.308 2.303 3.932 2.343-12.211.143-47.154 13.293-63.398 23.857-44.3 28.809-69.189 65.399-80.72 118.673-2.387 11.026-10.716 60.676 1.028 66.723 47.146 24.272 23.205 43.425 8.11 64.769-1.905 2.695 2.269 1.903-3.3 20.248-11.548 38.043 11.301 51.936 24.77 52.808z" transform="matrix(1.05321 0 0 1.25432 -20.7556986966 -93.248567496)"/><g transform="matrix(1.05321 0 0 1.25432 -158.880019485 -244.024103096)"><path d="m618.126 632.363c-9.999 1.002-22.427 4.81-55.861 17.114-43 15.825-63.247 21.729-73.865 21.755-4.692.011-5.473-3.107-4.231-10.73 2.249-13.819 2.392-22.816-3.207-25.71-6.824-3.529-31.149-1.554-79.07 6.423-60.012 9.99-75.271 13.107-82.8 16.91-10.766 5.44-18.35 16.792-18.331 27.437.019 11.08 8.154 23.343 19.379 29.214 4.7 2.457 6.431 2.746 16.77 2.794 10.786.05 11.968-.156 18.342-3.197 3.747-1.787 13.519-7.766 21.717-13.289 8.197-5.521 23.289-14.276 33.539-19.455 10.249-5.178 20.307-10.555 22.351-11.949 7.15-4.878 16.353-6.495 20.344-3.577 2.621 1.916 1.434 6.38-2.328 8.765-4.7 2.979-16.293 12.91-19.172 16.425-9.051 11.045-13.973 23.764-14.041 36.287-.1 18.603 7.342 32.649 20.028 37.798 11.887 4.824 32.832.952 50.904-9.411 17.062-9.783 33.017-23.845 63.738-56.175 11.108-11.69 33.503-29.844 43.577-35.328 6.414-3.49 20.04-8.009 26.674-8.846 3.714-.468 5.188-.195 6.607 1.224 3.153 3.153 1.702 5.982-5.099 9.932-8.573 4.98-18.361 14.926-21.955 22.312-3.424 7.035-3.29 11.354.593 19.129 8.423 16.863 31.3 21.053 53.571 9.81 15.453-7.8 34.09-25.423 43.215-40.862 2.862-4.84 7.031-10.107 8.254-12.393 3.083-5.761 7.654-14.611 4.935-16.291-.55-.34-4.957 1.522-9.794 4.137-10.561 5.71-23.942 9.379-30.163 10.671-2.526.525-5.412-1.028-7.167-2.918-3.23-3.476-8.008-14.068-12.211-17.943-8.971-8.269-19.715-11.619-35.243-10.063z" fill="#55cce1" stroke="#000" stroke-width=".98"/><path d="m487.354 714.583c-8.759 2.345-27.583 10.164-31.11 12.475-3.022 1.98-3.136 4.049-.374 6.811 6.538 6.538 25.731-.927 34.161-5.271 8.027-4.136 19.214-13.276 18.768-15.612-.446-2.335-14.521-.257-21.445 1.597z" stroke="#000" stroke-width=".98"/><path d="m376.021 678.845c-12.5 2.511-20.391 5.306-22.441 7.95-2.529 3.264-2.486 5.125.161 6.859 2.243 1.47 3.466 1.542 8.59.513 10.724-2.153 25.172-10.439 28.871-16.557 1.121-1.856-.401-1.733-15.181 1.235z" stroke="#000" stroke-width=".98"/><g fill="#f8f1e8"><path d="m735.339 504.486c-32.721 10.9-30.516 6.665-25.314 48.617 6.733 54.296 6.224 53.308 24.227 47.013 36.79-12.864 43.483-16.898 41.641-25.096-2.89-12.864-4.981-13.331-23.79-5.316-12.001 5.113-12.767 4.926-13.749-3.362l-.597-5.038 10.57-3.766c12.756-4.544 14.181-5.858 13.879-12.792-.452-10.394-3.312-11.53-16.93-6.723-9.928 3.504-9.24 3.73-9.962-3.272l-.564-5.46 7.875-3.258c4.331-1.791 9.262-3.827 10.957-4.524 7.022-2.886 9.577-11.684 5.666-19.506-2.368-4.737-2.178-4.756-23.909 2.483z"/><path d="m689.308 518.036c-10.131 2.902-9.157.658-14.371 33.108-2.192 13.648-4.37 25.837-4.838 27.086-.873 2.325-5.938-12.215-14.188-40.73-4.179-14.445-3.6-13.89-13.74-13.174-13.518.954-13.341-.564-4.114 35.174 15.649 60.611 14.067 57.265 26.557 56.148 22.118-1.979 23.155-3.904 32.425-60.148 6.112-37.085 5.266-41.186-7.731-37.464z"/><path d="m603.413 526.73c-1.604 1.604-1.677 4.449-1.011 39.25 1.016 53 .641 51.554 13.089 50.5 14.198-1.202 13.442.357 12.355-25.48-.474-11.275-1.216-30.018-1.65-41.652-.563-15.117-1.166-21.607-2.114-22.75-1.991-2.398-18.242-2.295-20.669.132z"/><path d="m532.337 521.572c-6.51 6.51-1.635 17.916 8.103 18.959 8.346.893 8.339.883 9.578 15.553 1.577 18.676 4.946 52.121 5.499 54.599.643 2.878 3.384 3.637 12.7 3.52 13.583-.171 12.884 2.831 9.442-40.538-2.551-32.141-3.224-29.655 8.025-29.68 9.451-.022 11.316-1.803 11.316-10.808 0-8.61-.596-8.9-22-10.705-10.175-.858-22.325-1.986-27-2.508-12.028-1.341-12.792-1.263-15.663 1.608z"/><path d="m481.665 512.491c-26.869 10.248-34.585 59.474-13.072 83.401 18.681 20.778 56.274 11.033 56.816-14.728.214-10.188-14.715-13.366-19.424-4.135-8.36 16.387-21.707 8.159-23.568-14.529-1.683-20.526 4.401-32.086 15.698-29.827 3.572.714 11.885 8.128 11.885 10.599 0 4.608 11.197 6.531 15.129 2.599 14.632-14.632-20.957-41.964-43.464-33.38z"/><path d="m422.5 512.191c-20.894 1.097-19.733.248-23.067 16.873-2.213 11.04-10.712 59.445-12.139 69.138-.466 3.171-.108 4.138 2.504 6.75 3.616 3.615 1.508 3.541 29.35 1.042l22.352-2.005 2.679-2.931c11.06-12.099 3.622-21.976-14.765-19.605-6.964.898-12.871 1.424-13.126 1.168-.381-.381.643-13.406 1.078-13.716.074-.052 5.851-.655 12.837-1.339 15.357-1.504 15.797-1.789 15.797-10.254 0-10.992-1.329-11.688-17-8.897-7.845 1.398-10.668-5.475-5.43-13.22.113-.167 5.969-.943 13.014-1.723 15.419-1.709 16.098-2.177 17.504-12.051 1.603-11.258 2.43-11.016-31.588-9.23z"/><path d="m370.038 516.159c-30.426 2.936-28.478 1.347-35.354 28.841-16.973 67.869-17.022 73.824-.578 70.486 11.07-2.247 11.883-2.742 11.943-7.271.027-2.043 1.985-11.365 4.351-20.715l4.302-17 10.399-1.156c5.72-.636 10.759-1.198 11.2-1.25 1.491-.175 3.699-7.004 3.699-11.439 0-6.299-1.327-7.041-11.468-6.409-9.911.619-9.572.805-8.28-4.544 1.482-6.138 2.038-6.415 16.087-7.993 14.402-1.617 16.137-2.529 17.707-9.308 1.397-6.029-1.072-14.94-3.951-14.261-.327.078-9.353.986-20.057 2.019z"/><path d="m309.5 526.404c-30.776 8.138-26.934 4.378-34.995 34.25-3.094 11.465-6.672 24.671-7.951 29.346-9.552 34.913-9.775 36.471-5.552 38.833 3.94 2.203 18.386-1.912 19.902-5.669 1.629-4.039 11.096-36.228 11.096-37.731 0-1.856.702-2.148 9.585-3.982 14.472-2.988 17.932-6.142 17.218-15.694-.42-5.616-2.18-6.492-9.855-4.907-7.109 1.468-10.047-9.381-3.043-11.236.877-.233 6.707-1.654 12.955-3.16 12.796-3.084 12.576-2.871 15.188-14.7 2.446-11.078-.479-11.715-24.548-5.35z"/><path d="m247.045 539.613c-31.985 8.924-33.672 11.473-54.054 81.679-8.948 30.822-10.161 29.704 23.047 21.233 32.519-8.296 29.828-7.331 31.868-11.42 8.237-16.508 4.414-20.168-16.838-16.118-12.37 2.357-11.539 2.796-8.991-4.749 2.598-7.694 2.129-7.361 16.423-11.65 13.619-4.087 15.586-5.608 17.485-13.526 2.093-8.724.063-9.539-14.235-5.715-10.2 2.728-10.128 2.816-5.924-7.248l2.674-6.401 13.489-3.315c14.752-3.626 15.205-3.931 17.541-11.797 4.569-15.386.481-17.381-22.485-10.973z"/><path d="m685.5 382.113c-6.984 1.011-23.801 5.577-27.652 7.507-4.636 2.324-4.026 16.543.866 20.183 2.327 1.731 8.275 1.075 15.286-1.686 21.403-8.429 34.106 1.542 27.324 21.446-3.934 11.546-19.82 21.89-17.383 11.319 3.643-15.801-1.839-20.664-18.423-16.345-13.965 3.638-13.319 2.058-23.496 57.506-5.104 27.808-2.519 30.975 21.231 26.015 7.162-1.495 7.074-1.326 10.166-19.576 2.685-15.839 3.006-16.443 8.758-16.467 4.377-.018 6.328 2.066 15.984 17.082 7.365 11.451 7.119 11.361 19.963 7.304 18.737-5.919 18.873-11.965.799-35.363l-5.764-7.463 6.523-6.915c36.617-38.816 18.918-72.237-34.182-64.547z" stroke="#000" stroke-width=".98"/><path d="m598.422 389.918c-28.935.932-27.755-.945-41.518 66.082-2.202 10.725-5.106 24.305-6.454 30.178-5.192 22.626-6.616 21.558 30.446 22.822l29.395 1.002 4.247-3.48c18.975-15.548 13.502-28.651-11.831-28.323-18.57.241-17.094 1.206-14.95-9.775l1.743-8.924 12-.63c20.985-1.102 26.5-4.782 26.5-17.683 0-6.781-1.536-7.361-17.364-6.567-15.573.781-14.536 1.583-11.802-9.12l1.789-7 5.938-.728c3.267-.4 10.173-.652 15.349-.56l9.409.168 2.858-3.423c4.598-5.508 6.829-20.047 3.5-22.81-1.761-1.462-17.117-1.943-39.255-1.229z" stroke="#000" stroke-width=".98"/><path d="m497 375.937c-7.519 1.401-12.304 2.953-16.5 5.354l-4 2.288v9.177c0 12.542 1.027 13.627 9.355 9.889 24.647-11.06 42.196.647 33.814 22.558-4.904 12.821-19.669 15.471-19.669 3.531 0-11.058-8.545-13.468-23.697-6.683-7.284 3.262-6.52 1.402-13.725 33.449-2.473 11-5.64 23.944-7.037 28.765-4.315 14.886-3.882 15.302 15.714 15.067 8.639-.103 14.278-.576 14.682-1.23.361-.584 2.434-8.047 4.606-16.583l3.95-15.521 3.504-.492c38.779-5.443 58.037-22.927 58.387-53.006.308-26.481-26.131-42.76-59.384-36.563z" stroke="#000" stroke-width=".98"/><path d="m435 380.561c-12.005 1.786-10.228-1.636-20.38 39.243-12.337 49.671-13.348 51.833-24.738 52.862-5.829.527-6.865.351-8.695-1.479l-2.077-2.077 1.984-6.805c1.091-3.743 3.723-13.33 5.849-21.305s5.934-22.042 8.461-31.26c6.345-23.138 6.322-23.209-7.404-23.101-18.621.147-20.842 3.489-33.455 50.361-8.106 30.121-8.914 34.199-8.175 41.268 4.518 43.226 74.985 33.382 92.954-12.986 4.328-11.169 19.606-82.803 17.984-84.323-1.665-1.559-13.132-1.764-22.308-.398z" stroke="#000" stroke-width=".98"/><path d="m312.077 392.59c-39.145 10.524-51.772 43.321-25.718 66.802 4.338 3.909 9.924 8.947 12.413 11.196 5.139 4.641 5.204 5.991.631 13.026-6.306 9.702-23.156 9.757-19.471.064 6.694-17.607-19.361-16.837-27.581.815-15.925 34.198 37.818 47.913 68.639 17.517 22.185-21.879 19.559-45.139-7.582-67.16-9.452-7.669-10.245-13.297-2.441-17.333 6.231-3.222 9.692-1.561 10.717 5.144 1.934 12.657 21.694 8.755 25.417-5.019 5.303-19.622-11.231-31.449-35.024-25.052z" stroke="#000" stroke-width=".98"/></g><path d="m767.473 220.559c-32.461 19.547-51.498 74.884-36.022 104.712 3.373 6.503 3.441 9.804 1.45 12.002-2.441 2.695-11.751 3.52-18.992-15.023-6.95-17.797-8.538 8.449-2.263 37.418l1.769 8.168 10.542.589c21.613 1.207 30.18 4.06 35.834 11.934 11.517 16.038 10.525 38.926-2.409 55.587-10.669 13.745-3.709 32.147 10.86 28.712 61.273-14.445 103.739-85.42 84.447-141.141l-1.293-3.737-3.198 6c-2.953 5.541-3.198 6.729-3.198 15.521 0 18.66-9.706 37.095-16.884 32.068-2.514-1.761-2.631-4.145-.536-10.869 7.291-23.398-2.048-50.116-28.094-80.376-24.405-28.352-31.161-46.19-24.001-63.374 1.141-2.74-1.418-2.162-8.012 1.809z" fill="#ff7300" stroke="#000" stroke-width="1.95"/><path d="m454.004 237.75c.003.412-.061 13.26-.141 28.549l-.146 27.799 7.156 9.084c9.255 11.75 10.229 15.447 4.729 17.954-4.496 2.048-6.963.258-20.004-14.505-59.248-67.079-136.358-76.259-198.635-23.649-11.016 9.306-16.821 16.215-9.8 11.663 61.113-39.619 187.289-5.422 232.009 62.881 5.111 7.806 6.677 9.53 8.313 9.152 1.108-.257 5.574-1.414 9.925-2.572 25.858-6.884 65.312 2.564 73.68 17.644 1.531 2.759 2.671 2.823 5.358.299 4.617-4.338 11.611-5.049 49.639-5.049h35.667l2.002-4.75c8.449-20.048 9.419-43.936 2.72-66.979-2.135-7.344-2.511-7.119-16.659 9.979-32.958 39.829-53.201 54.288-46.962 33.543 7.807-25.955 7.629-59.25-.452-84.949-3.259-10.364-3.076-10.086-5.714-8.695-11.748 6.193-33.842 34.519-48.018 61.561-8.657 16.514-9.85 17.964-13.946 16.936-2.208-.554-2.751-1.484-3.733-6.397-6.539-32.716-25.793-60.599-58.596-84.858-7.341-5.429-8.4-6.014-8.392-4.641z" fill="#7bd37f" stroke="#000" stroke-width="1.95"/><path d="m288 289.681c-14.765 2.411-36.307 8.389-37.565 10.424-.315.511 5.593.898 13.756.901 30.897.013 84.052 13.804 90.37 23.447 3.81 5.815-4.172 8.701-10.171 6.25-12.608-5.152-57.658-.263-90.89 16.265-77.641 38.614-109.925 130.212-75.083 213.032 9.633 22.899 11.949 24.486 16.677 11.427 7.181-19.834 13.354-28.865 23.215-33.963 12.761-6.597 15.272-10.505 16.745-26.057 1.353-14.276 4.062-25.31 9.5-38.699 6.713-16.526 8.611-21.876 7.983-22.504-2.872-2.872-23.685 16.902-31.034 29.485-2.096 3.59-7.139 6.724-9.935 6.175-10.492-2.06 9.449-30.632 31.29-44.833 15.386-10.004 14.438-9.038 16.848-17.155 10.137-34.143 57.349-56.681 90.751-43.323 5.053 2.02 6.192 2.177 7.5 1.031 8.627-7.554 34.631-12.11 46.075-8.073 3.585 1.265 4.625 1.296 6.376.191 7.468-4.713 22.108-7.976 36.338-8.097 13.993-.12 14.06-.179 8.363-7.265-36.501-45.396-114.163-77.305-167.109-68.659z" fill="#7bd37f" stroke="#000" stroke-width=".98"/><path d="m180.682 668.656c3.79 3.867 134.103-32.465 120.775-17.914-4.696 5.128-11.94 15.896-13.404 32.103-1.09 12.062 1.907 24.259 11.475 34.553 10.276 11.053 20.853 15.611 36.065 15.541 15.032-.068 22.781-2.592 43.887-14.292 8.698-4.821 25.44-12.029 27.942-12.029.271 0-.025.623-.656 1.383s-1.918 4.651-2.858 8.646c-3.906 16.584 1.651 39.781 12.302 51.354 5.408 5.876 9.702 8.712 18.174 12.003 9.109 3.539 26.138 3.608 37.151.15 22.711-7.13 43.168-21.707 77.608-55.301 17.05-16.631 21.829-20.331 26.259-20.331 4.051 0 8.428 3.55 13.19 10.701 6.907 10.37 13.092 16.229 21.075 19.964 6.227 2.915 8.298 3.327 18.577 3.701 13.898.504 23.624-1.712 36.723-8.373 23.692-12.047 40.022-27.98 53.174-54.906 2.896-5.931 19.742-39.435 8.064-45.647-6.23-3.314-6.076-8.634 3.393-10.057 28.818-4.333 54.721-20.887 57.848-23.803 8.244-7.686 7.386-25.35 4.195-37.852-1.509-5.913-4.505-17.275-6.658-25.25s-4.635-17.986-5.516-22.248c-1.359-6.571-2.278-8.539-6.053-12.962-3.99-4.674-5.621-8.193-6.599-14.24-.265-1.644 1.333-2.548 10.173-5.757 57.505-20.87 96.911-73.638 94.685-126.793-1.011-24.164-10.863-56.851-18.132-60.163-5.016-2.286-7.317.912-14.016 19.474-2 5.539-2.09 5.511-4.963-1.557-5.259-12.938-12.377-23.009-29.826-42.197-18.936-20.824-21.491-29.207-15.145-49.694 5.492-17.729 1.851-22.755-12.62-17.421-31.645 11.663-51.668 38.518-60.432 78.688-.66 3.025-.941 16.135-2.406 17.485-1.464 1.35-3.951-8.091-6.381-9.386-6.47-3.449-9.05 1.558-10.896 13.525-1.471 9.54-1.912 55.648-.602 62.95.862 4.803 2.368 4.143-14.254 6.249-4.675.593-9.588 1.368-10.919 1.723-2.097.56-2.309.391-1.596-1.265 8.58-19.945 6.996-55.619-3.503-78.887-.999-2.213-2.727-6.159-3.84-8.769-4.464-10.461-8.754-8.813-19.559 7.512-7.715 11.657-27.871 35.733-29.915 35.733-.849 0-1.168-5.121-1.168-18.75 0-21.822-.927-27.029-10.155-57.018-6.466-21.014-8.963-20.768-32.845 3.231-14.005 14.075-30.736 35.686-37.383 48.287-1.746 3.309-2.509 2.829-4.98-3.134-10.938-26.389-37.894-56.403-65.975-73.458-19.555-11.877-22.738-10.136-21.172 11.58 1.098 15.233 1.358 44.262.396 44.262-.338 0-3.151-2.162-6.25-4.805-65.548-55.889-147.523-51.878-208.636 10.206-25.525 25.931-28.115 42.868-5.522 36.106 26.354-7.889 51.593-9.894 74.007-5.88 4.923.882 7.308 2.303 3.932 2.343-12.211.143-47.154 13.293-63.398 23.857-44.3 28.809-69.189 65.399-80.72 118.673-2.387 11.026-1.728 53.804 1.028 66.723 5.718 26.803 18.036 55.395 29.506 68.483 2.175 2.482 2.269 1.903-3.3 20.248-11.548 38.043-9.33 42.523.649 52.702zm437.444-36.293c-9.999 1.002-22.427 4.81-55.861 17.114-43 15.825-63.247 21.729-73.865 21.755-4.692.011-5.473-3.107-4.231-10.73 2.249-13.819 2.392-22.816-3.207-25.71-6.824-3.529-31.149-1.554-79.07 6.423-60.012 9.99-75.271 13.107-82.8 16.91-10.766 5.44-18.35 16.792-18.331 27.437.019 11.08 8.154 23.343 19.379 29.214 4.7 2.457 6.431 2.746 16.77 2.794 10.786.05 11.968-.156 18.342-3.197 3.747-1.787 13.519-7.766 21.717-13.289 8.197-5.521 23.289-14.276 33.539-19.455 10.249-5.178 20.307-10.555 22.351-11.949 7.15-4.878 16.353-6.495 20.344-3.577 2.621 1.916 1.434 6.38-2.328 8.765-4.7 2.979-16.293 12.91-19.172 16.425-9.051 11.045-13.973 23.764-14.041 36.287-.1 18.603 7.342 32.649 20.028 37.798 11.887 4.824 32.832.952 50.904-9.411 17.062-9.783 33.017-23.845 63.738-56.175 11.108-11.69 33.503-29.844 43.577-35.328 6.414-3.49 20.04-8.009 26.674-8.846 3.714-.468 5.188-.195 6.607 1.224 3.153 3.153 1.702 5.982-5.099 9.932-8.573 4.98-18.361 14.926-21.955 22.312-3.424 7.035-3.29 11.354.593 19.129 8.423 16.863 31.3 21.053 53.571 9.81 15.453-7.8 34.09-25.423 43.215-40.862 2.862-4.84 7.031-10.107 8.254-12.393 3.083-5.761 7.654-14.611 4.935-16.291-.55-.34-4.957 1.522-9.794 4.137-10.561 5.71-23.942 9.379-30.163 10.671-2.526.525-5.412-1.028-7.167-2.918-3.23-3.476-8.008-14.068-12.211-17.943-8.971-8.269-19.715-11.619-35.243-10.063zm-130.772 82.22c-6.78 1.822-27.583 10.164-31.11 12.475-3.022 1.98-3.136 4.049-.374 6.811 6.538 6.538 32.905-2.204 47.382-15.708l5.547-5.175-7.861.03c-4.323.015-10.437.721-13.584 1.567zm-111.333-35.738c-12.5 2.511-20.391 5.306-22.441 7.95-2.529 3.264-2.486 5.125.161 6.859 2.243 1.47 3.466 1.542 8.59.513 10.724-2.153 25.172-10.439 28.871-16.557 1.121-1.856-.401-1.733-15.181 1.235zm-128.976-139.232c-31.985 8.924-33.672 11.473-54.054 81.679-8.948 30.822-10.161 29.704 23.047 21.233 32.519-8.296 29.828-7.331 31.868-11.42 8.237-16.508 4.414-20.168-16.838-16.118-12.37 2.357-11.539 2.796-8.991-4.749 2.598-7.694 2.129-7.361 16.423-11.65 13.619-4.087 15.586-5.608 17.485-13.526 2.093-8.724.063-9.539-14.235-5.715-10.2 2.728-10.128 2.816-5.924-7.248l2.674-6.401 13.489-3.315c14.752-3.626 15.205-3.931 17.541-11.797 4.569-15.386.481-17.381-22.485-10.973zm62.455-13.209c-30.776 8.138-26.934 4.378-34.995 34.25-3.094 11.465-6.672 24.671-7.951 29.346-9.552 34.913-9.775 36.471-5.552 38.833 3.94 2.203 18.386-1.912 19.902-5.669 1.629-4.039 11.096-36.228 11.096-37.731 0-1.856.702-2.148 9.585-3.982 14.472-2.988 17.932-6.142 17.218-15.694-.42-5.616-2.18-6.492-9.855-4.907-7.109 1.468-10.047-9.381-3.043-11.236.877-.233 6.707-1.654 12.955-3.16 12.796-3.084 12.576-2.871 15.188-14.7 2.446-11.078-.479-11.715-24.548-5.35zm293.913.326c-1.604 1.604-1.677 4.449-1.011 39.25 1.016 53 .641 51.554 13.089 50.5 14.198-1.202 13.442.357 12.355-25.48-.474-11.275-1.216-30.018-1.65-41.652-.563-15.117-1.166-21.607-2.114-22.75-1.991-2.398-18.242-2.295-20.669.132zm-233.375-10.571c-30.426 2.936-28.478 1.347-35.354 28.841-16.973 67.869-17.022 73.824-.578 70.486 11.07-2.247 11.883-2.742 11.943-7.271.027-2.043 1.985-11.365 4.351-20.715l4.302-17 10.399-1.156c5.72-.636 10.759-1.198 11.2-1.25 1.491-.175 3.699-7.004 3.699-11.439 0-6.299-1.327-7.041-11.468-6.409-9.911.619-9.572.805-8.28-4.544 1.482-6.138 2.038-6.415 16.087-7.993 14.402-1.617 16.137-2.529 17.707-9.308 1.397-6.029-1.072-14.94-3.951-14.261-.327.078-9.353.986-20.057 2.019zm319.27 1.877c-10.131 2.902-9.157.658-14.371 33.108-2.192 13.648-4.37 25.837-4.838 27.086-.873 2.325-5.938-12.215-14.188-40.73-4.179-14.445-3.6-13.89-13.74-13.174-13.518.954-13.341-.564-4.114 35.174 15.649 60.611 14.067 57.265 26.557 56.148 22.118-1.979 23.155-3.904 32.425-60.148 6.112-37.085 5.266-41.186-7.731-37.464zm-156.971 3.536c-6.51 6.51-1.635 17.916 8.103 18.959 8.346.893 8.339.883 9.578 15.553 1.577 18.676 4.946 52.121 5.499 54.599.643 2.878 3.384 3.637 12.7 3.52 13.583-.171 12.884 2.831 9.442-40.538-2.551-32.141-3.224-29.655 8.025-29.68 9.451-.022 11.316-1.803 11.316-10.808 0-8.61-.596-8.9-22-10.705-10.175-.858-22.325-1.986-27-2.508-12.028-1.341-12.792-1.263-15.663 1.608zm-109.837-9.381c-20.894 1.097-19.733.248-23.067 16.873-2.213 11.04-10.712 59.445-12.139 69.138-.466 3.171-.108 4.138 2.504 6.75 3.616 3.615 1.508 3.541 29.35 1.042l22.352-2.005 2.679-2.931c11.06-12.099 3.622-21.976-14.765-19.605-6.964.898-12.871 1.424-13.126 1.168-.381-.381.643-13.406 1.078-13.716.074-.052 5.851-.655 12.837-1.339 15.357-1.504 15.797-1.789 15.797-10.254 0-10.992-1.329-11.688-17-8.897-7.845 1.398-10.668-5.475-5.43-13.22.113-.167 5.969-.943 13.014-1.723 15.419-1.709 16.098-2.177 17.504-12.051 1.603-11.258 2.43-11.016-31.588-9.23zm59.165.3c-26.869 10.248-34.585 59.474-13.072 83.401 18.681 20.778 56.274 11.033 56.816-14.728.214-10.188-14.715-13.366-19.424-4.135-8.36 16.387-21.707 8.159-23.568-14.529-1.683-20.526 4.401-32.086 15.698-29.827 3.572.714 11.885 8.128 11.885 10.599 0 4.608 11.197 6.531 15.129 2.599 14.632-14.632-20.957-41.964-43.464-33.38zm253.674-8.005c-32.721 10.9-30.516 6.665-25.314 48.617 6.733 54.296 6.224 53.308 24.227 47.013 36.79-12.864 43.483-16.898 41.641-25.096-2.89-12.864-4.981-13.331-23.79-5.316-12.001 5.113-12.767 4.926-13.749-3.362l-.597-5.038 10.57-3.766c12.756-4.544 14.181-5.858 13.879-12.792-.452-10.394-3.312-11.53-16.93-6.723-9.928 3.504-9.24 3.73-9.962-3.272l-.564-5.46 7.875-3.258c4.331-1.791 9.262-3.827 10.957-4.524 7.022-2.886 9.577-11.684 5.666-19.506-2.368-4.737-2.178-4.756-23.909 2.483zm-447.339-214.805c-14.765 2.411-36.307 8.389-37.565 10.424-.315.511 5.593.898 13.756.901 30.897.013 84.052 13.804 90.37 23.447 3.81 5.815-4.172 8.701-10.171 6.25-12.608-5.152-57.658-.263-90.89 16.265-77.641 38.614-109.925 130.212-75.083 213.032 9.633 22.899 11.949 24.486 16.677 11.427 7.181-19.834 13.354-28.865 23.215-33.963 12.761-6.597 15.272-10.505 16.745-26.057 1.353-14.276 4.062-25.31 9.5-38.699 6.713-16.526 8.611-21.876 7.983-22.504-2.872-2.872-23.685 16.902-31.034 29.485-2.096 3.59-7.139 6.724-9.935 6.175-10.492-2.06 9.449-30.632 31.29-44.833 15.386-10.004 14.438-9.038 16.848-17.155 10.137-34.143 57.349-56.681 90.751-43.323 5.053 2.02 6.192 2.177 7.5 1.031 8.627-7.554 34.631-12.11 46.075-8.073 3.585 1.265 4.625 1.296 6.376.191 7.468-4.713 22.108-7.976 36.338-8.097 13.993-.12 14.06-.179 8.363-7.265-36.501-45.396-114.163-77.305-167.109-68.659zm24.077 102.909c-39.145 10.524-51.772 43.321-25.718 66.802 4.338 3.909 9.924 8.947 12.413 11.196 5.139 4.641 5.204 5.991.631 13.026-6.306 9.702-23.156 9.757-19.471.064 6.694-17.607-19.361-16.837-27.581.815-15.925 34.198 37.818 47.913 68.639 17.517 22.185-21.879 19.559-45.139-7.582-67.16-9.452-7.669-10.245-13.297-2.441-17.333 6.231-3.222 9.692-1.561 10.717 5.144 1.934 12.657 21.694 8.755 25.417-5.019 5.303-19.622-11.231-31.449-35.024-25.052zm286.345-2.672c-28.935.932-27.755-.945-41.518 66.082-2.202 10.725-5.106 24.305-6.454 30.178-5.192 22.626-6.616 21.558 30.446 22.822l29.395 1.002 4.247-3.48c18.975-15.548 13.502-28.651-11.831-28.323-18.57.241-17.094 1.206-14.95-9.775l1.743-8.924 12-.63c20.985-1.102 26.5-4.782 26.5-17.683 0-6.781-1.536-7.361-17.364-6.567-15.573.781-14.536 1.583-11.802-9.12l1.789-7 5.938-.728c3.267-.4 10.173-.652 15.349-.56l9.409.168 2.858-3.423c4.598-5.508 6.829-20.047 3.5-22.81-1.761-1.462-17.117-1.943-39.255-1.229zm87.078-7.805c-6.984 1.011-23.801 5.577-27.652 7.507-4.636 2.324-4.026 16.543.866 20.183 2.327 1.731 8.275 1.075 15.286-1.686 21.403-8.429 34.106 1.542 27.324 21.446-3.934 11.546-19.82 21.89-17.383 11.319 3.643-15.801-1.839-20.664-18.423-16.345-13.965 3.638-13.319 2.058-23.496 57.506-5.104 27.808-2.519 30.975 21.231 26.015 7.162-1.495 7.074-1.326 10.166-19.576 2.685-15.839 3.006-16.443 8.758-16.467 4.377-.018 6.328 2.066 15.984 17.082 7.365 11.451 7.119 11.361 19.963 7.304 18.737-5.919 18.873-11.965.799-35.363l-5.764-7.463 6.523-6.915c36.617-38.816 18.918-72.237-34.182-64.547zm-250.5-1.552c-12.005 1.786-10.228-1.636-20.38 39.243-12.337 49.671-13.348 51.833-24.738 52.862-5.829.527-6.865.351-8.695-1.479l-2.077-2.077 1.984-6.805c1.091-3.743 3.723-13.33 5.849-21.305s5.934-22.042 8.461-31.26c6.345-23.138 6.322-23.209-7.404-23.101-18.621.147-20.842 3.489-33.455 50.361-8.106 30.121-8.914 34.199-8.175 41.268 4.518 43.226 74.985 33.382 92.954-12.986 4.328-11.169 19.606-82.803 17.984-84.323-1.665-1.559-13.132-1.764-22.308-.398zm62-4.624c-7.519 1.401-12.304 2.953-16.5 5.354l-4 2.288v9.177c0 12.542 1.027 13.627 9.355 9.889 24.647-11.06 42.196.647 33.814 22.558-4.904 12.821-19.669 15.471-19.669 3.531 0-11.058-8.545-13.468-23.697-6.683-7.284 3.262-6.52 1.402-13.725 33.449-2.473 11-5.64 23.944-7.037 28.765-4.315 14.886-3.882 15.302 15.714 15.067 8.639-.103 14.278-.576 14.682-1.23.361-.584 2.434-8.047 4.606-16.583l3.95-15.521 3.504-.492c38.779-5.443 58.037-22.927 58.387-53.006.308-26.481-26.131-42.76-59.384-36.563zm270.473-155.378c-32.461 19.547-51.498 74.884-36.022 104.712 3.373 6.503 3.441 9.804 1.45 12.002-2.441 2.695-11.751 3.52-18.992-15.023-6.95-17.797-8.538 8.449-2.263 37.418l1.769 8.168 10.542.589c21.613 1.207 30.18 4.06 35.834 11.934 11.517 16.038 10.525 38.926-2.409 55.587-10.669 13.745-3.709 32.147 10.86 28.712 61.273-14.445 103.739-85.42 84.447-141.141l-1.293-3.737-3.198 6c-2.953 5.541-3.198 6.729-3.198 15.521 0 18.66-9.706 37.095-16.884 32.068-2.514-1.761-2.631-4.145-.536-10.869 7.291-23.398-2.048-50.116-28.094-80.376-24.405-28.352-31.161-46.19-24.001-63.374 1.141-2.74-1.418-2.162-8.012 1.809zm-313.469 17.191c.003.412-.061 13.26-.141 28.549l-.146 27.799 7.156 9.084c9.255 11.75 10.229 15.447 4.729 17.954-4.496 2.048-6.963.258-20.004-14.505-59.248-67.079-136.358-76.259-198.635-23.649-11.016 9.306-16.821 16.215-9.8 11.663 61.113-39.619 187.289-5.422 232.009 62.881 5.111 7.806 6.677 9.53 8.313 9.152 1.108-.257 5.574-1.414 9.925-2.572 25.858-6.884 65.312 2.564 73.68 17.644 1.531 2.759 2.671 2.823 5.358.299 4.617-4.338 11.611-5.049 49.639-5.049h35.667l2.002-4.75c8.449-20.048 9.419-43.936 2.72-66.979-2.135-7.344-2.511-7.119-16.659 9.979-32.958 39.829-53.201 54.288-46.962 33.543 7.807-25.955 7.629-59.25-.452-84.949-3.259-10.364-3.076-10.086-5.714-8.695-11.748 6.193-33.842 34.519-48.018 61.561-8.657 16.514-9.85 17.964-13.946 16.936-2.208-.554-2.751-1.484-3.733-6.397-6.539-32.716-25.793-60.599-58.596-84.858-7.341-5.429-8.4-6.014-8.392-4.641z"/></g><g transform="matrix(.71920656591 0 0 .78311336856 284.36288241 6.270059328)"><path d="m357.641 105.634 98.431-4.197 13.375 13.684-40.623 69.31 29.676 5.569 6 2 23.5 21.5v5l-163.317 155.92-8.278.044-9.348-14.25 28.405-101.714-19.681-2.76-11.781-14.24-4.719-7.932z"/><path d="m354.945 110.213 98.432-4.196 13.375 13.683-37.928 64.731 29.676 5.569 6 2 23.5 21.5v5l-163.317 155.92-8.278.044-9.348-14.25 28.405-101.714-19.681-2.76-16.639-15.767.139-6.405z" transform="matrix(1.10196 0 0 1.07833 -39.7167 -21.8029)"/><path d="m368.5 118.5 69.068 2.009-45.068 72.888 60 7-128.974 152.536v-4l34.974-115.433-44-.5z" fill="#fe0"/></g><path d="m12 3-1.912 5.813c-.198.603-.672 1.077-1.275 1.275l-5.813 1.912 5.813 1.912c.603.198 1.077.672 1.275 1.275l1.777 6.686 2.365-6.178c.199-.603.672-1.077 1.275-1.275l5.495-2.42-5.813-1.912c-.603-.198-1.077-.672-1.275-1.275z" fill="none" stroke="#000" stroke-linecap="round" stroke-miterlimit="4" stroke-width="2" transform="matrix(5.65396670204 0 0 6.4203381354 47.36000518685 603.18640333708)"/><path d="m12.95 2.688 1.912 5.813c.099.301.336.538.637.637l5.813 1.912c.411.135.688.518.688.95s-.277.815-.688.95l-5.813 1.912c-.301.099-.538.336-.637.637l-1.912 5.813c-.135.411-.518.688-.95.688s-.815-.277-.95-.688l-1.912-5.813c-.099-.301-.336-.538-.637-.637l-5.813-1.912c-.411-.135-.688-.518-.688-.95s.277-.815.688-.95l5.813-1.912c.301-.099.538-.336.637-.637l1.912-5.813c.135-.411.518-.688.95-.688s.815.277.95.688z" fill="#fd0" transform="matrix(5.65396670204 0 0 6.4203381354 44.62315701124 599.6399695765)"/><g fill="none" stroke="#000" stroke-linecap="round" stroke-miterlimit="4" stroke-width="2"><path d="m12 3-1.912 5.813c-.198.603-.672 1.077-1.275 1.275l-5.813 1.912 5.813 1.912c.603.198 1.077.672 1.275 1.275l1.912 5.813 1.912-5.813c.198-.603.672-1.077 1.275-1.275l5.813-1.912-5.813-1.912c-.603-.198-1.077-.672-1.275-1.275z" transform="matrix(5.65396670204 0 0 6.4203381354 44.62315701124 599.6399695765)"/><path d="m5 3v4" transform="matrix(5.65396670204 0 0 6.4203381354 44.62315701124 599.6399695765)"/><path d="m19 17v4" transform="matrix(5.65396670204 0 0 6.4203381354 44.62315701124 599.6399695765)"/><path d="m3 5h4" transform="matrix(5.65396670204 0 0 6.4203381354 44.62315701124 599.6399695765)"/><path d="m17 19h4" transform="matrix(5.65396670204 0 0 6.4203381354 44.62315701124 599.6399695765)"/><path d="m13.009 2.767-2.921 6.046c-.198.603-.672 1.077-1.275 1.275l-5.829 1.667 5.829 2.157c.603.198 1.077.672 1.275 1.275l2.671 6.302 2.366-6.178c.198-.603.672-1.077 1.275-1.275l4.6-2.036-5.813-1.912c-.603-.198-1.077-.672-1.275-1.275z" transform="matrix(-1.37992872772 -4.38429518076 3.86095069018 -1.56696879757 695.40769426119 497.89461601154)"/></g><path d="m12.95 2.688 1.912 5.813c.099.301.336.538.637.637l5.813 1.912c.411.135.688.518.688.95s-.277.815-.688.95l-5.813 1.912c-.301.099-.538.336-.637.637l-1.912 5.813c-.135.411-.518.688-.95.688s-.815-.277-.95-.688l-1.912-5.813c-.099-.301-.336-.538-.637-.637l-5.813-1.912c-.411-.135-.688-.518-.688-.95s.277-.815.688-.95l5.813-1.912c.301-.099.538-.336.637-.637l1.912-5.813c.135-.411.518-.688.95-.688s.815.277.95.688z" fill="#ffce00" transform="matrix(-1.37992872772 -4.38429518076 3.86095069018 -1.56696879757 691.83658448439 493.70659191171)"/><path d="m12 3-1.912 5.813c-.198.603-.672 1.077-1.275 1.275l-5.813 1.912 5.813 1.912c.603.198 1.077.672 1.275 1.275l1.912 5.813 1.912-5.813c.198-.603.672-1.077 1.275-1.275l5.813-1.912-5.813-1.912c-.603-.198-1.077-.672-1.275-1.275z" fill="none" stroke="#000" stroke-linecap="round" stroke-miterlimit="4" stroke-width="2" transform="matrix(-1.37992872772 -4.38429518076 3.86095069018 -1.56696879757 691.83658448439 493.70659191171)"/><path d="m5 3v4" fill="none" stroke="#000" stroke-linecap="round" stroke-miterlimit="4" stroke-width="2" transform="matrix(-1.37992872772 -4.38429518076 3.86095069018 -1.56696879757 691.83658448439 493.70659191171)"/><path d="m19 17v4" fill="none" stroke="#000" stroke-linecap="round" stroke-miterlimit="4" stroke-width="2" transform="matrix(-1.37992872772 -4.38429518076 3.86095069018 -1.56696879757 691.83658448439 493.70659191171)"/><path d="m3 5h4" fill="none" stroke="#000" stroke-linecap="round" stroke-miterlimit="4" stroke-width="2" transform="matrix(-1.37992872772 -4.38429518076 3.86095069018 -1.56696879757 691.83658448439 493.70659191171)"/><path d="m17 19h4" fill="none" stroke="#000" stroke-linecap="round" stroke-miterlimit="4" stroke-width="2" transform="matrix(-1.37992872772 -4.38429518076 3.86095069018 -1.56696879757 691.83658448439 493.70659191171)"/></g></svg>