<?xml version="1.0" encoding="UTF-8" standalone="no"?>
<!DOCTYPE svg PUBLIC "-//W3C//DTD SVG 1.1//EN" "http://www.w3.org/Graphics/SVG/1.1/DTD/svg11.dtd">
<svg width="100%" height="100%" viewBox="0 0 800 800" version="1.1" xmlns="http://www.w3.org/2000/svg" xmlns:xlink="http://www.w3.org/1999/xlink" xml:space="preserve" xmlns:serif="http://www.serif.com/" style="fill-rule:evenodd;clip-rule:evenodd;stroke-linejoin:round;stroke-miterlimit:2;">
    <g transform="matrix(1,0,0,1,7.21947,5.94666)">
        <g id="shadow" transform="matrix(1,0,0,1,9.59804,20.143)">
            <path d="M69.822,570.95C101.346,572.991 201.2,542.092 187.872,556.644C183.176,561.771 162.461,566.467 160.997,582.674C159.907,594.736 176.375,613.006 185.943,623.3C196.219,634.353 206.797,638.911 222.008,638.841C237.041,638.773 244.789,636.249 265.895,624.549C274.593,619.728 291.336,612.52 293.837,612.52C294.108,612.52 293.812,613.142 293.181,613.902C292.55,614.663 277.392,620.821 276.452,624.816C272.545,641.399 291.974,662.33 302.625,673.903C308.033,679.779 312.327,682.615 320.799,685.906C329.908,689.444 346.937,689.514 357.95,686.056C380.661,678.926 401.118,664.349 435.558,630.755C452.608,614.123 457.387,610.424 461.817,610.424C465.868,610.424 470.245,613.973 475.007,621.125C481.914,631.495 488.099,637.354 496.082,641.089C502.31,644.004 504.381,644.416 514.659,644.79C528.557,645.294 538.284,643.077 551.382,636.417C575.074,624.37 591.404,608.437 604.556,581.51C607.452,575.58 624.659,537.286 612.981,531.074C606.751,527.76 606.544,527.23 616.013,525.806C644.831,521.474 670.734,504.92 673.861,502.004C682.105,494.317 681.247,476.654 678.056,464.152C676.547,458.239 673.551,446.877 671.398,438.902C669.245,430.927 654.208,395.499 653.23,389.452C652.965,387.808 654.563,386.904 663.403,383.695C720.908,362.825 760.314,310.057 758.088,256.902C757.077,232.738 733.56,179.952 726.291,176.64C721.275,174.354 732.639,197.651 725.94,216.213C723.94,221.752 723.85,221.724 720.977,214.656C715.718,201.718 708.6,191.647 691.151,172.459C672.215,151.635 611.718,143.861 602.954,184.031C602.294,187.056 602.013,200.167 600.548,201.517C599.084,202.867 596.597,193.426 594.167,192.131C587.697,188.682 585.117,193.689 583.271,205.656C581.8,215.196 581.359,261.304 582.669,268.606C583.531,273.409 585.037,272.749 568.415,274.855C563.74,275.448 558.827,276.223 557.496,276.578C555.399,277.138 555.187,276.969 555.9,275.313C564.48,255.368 548.239,200.201 537.74,176.933C536.741,174.72 535.013,170.774 533.9,168.164C529.436,157.703 539.803,178.844 528.998,195.169C521.283,206.826 156.986,217.515 179.4,221.529C184.323,222.411 186.708,223.832 183.332,223.872C171.121,224.015 136.178,237.165 119.934,247.729C75.634,276.538 50.745,313.128 39.214,366.402C36.827,377.428 28.498,427.078 40.242,433.125C87.388,457.397 63.447,476.55 48.352,497.894C46.447,500.589 50.621,499.797 45.052,518.142C33.504,556.185 56.353,570.078 69.822,570.95Z"/>
        </g>
        <g transform="matrix(1,0,0,1,-121.548,-100.062)">
            <g>
                <path d="M618.126,632.363C608.127,633.365 595.699,637.173 562.265,649.477C519.265,665.302 499.018,671.206 488.4,671.232C483.708,671.243 482.927,668.125 484.169,660.502C486.418,646.683 486.561,637.686 480.962,634.792C474.138,631.263 449.813,633.238 401.892,641.215C341.88,651.205 326.621,654.322 319.092,658.125C308.326,663.565 300.742,674.917 300.761,685.562C300.78,696.642 308.915,708.905 320.14,714.776C324.84,717.233 326.571,717.522 336.91,717.57C347.696,717.62 348.878,717.414 355.252,714.373C358.999,712.586 368.771,706.607 376.969,701.084C385.166,695.563 400.258,686.808 410.508,681.629C420.757,676.451 430.815,671.074 432.859,669.68C440.009,664.802 449.212,663.185 453.203,666.103C455.824,668.019 454.637,672.483 450.875,674.868C446.175,677.847 434.582,687.778 431.703,691.293C422.652,702.338 417.73,715.057 417.662,727.58C417.562,746.183 425.004,760.229 437.69,765.378C449.577,770.202 470.522,766.33 488.594,755.967C505.656,746.184 521.611,732.122 552.332,699.792C563.44,688.102 585.835,669.948 595.909,664.464C602.323,660.974 615.949,656.455 622.583,655.618C626.297,655.15 627.771,655.423 629.19,656.842C632.343,659.995 630.892,662.824 624.091,666.774C615.518,671.754 605.73,681.7 602.136,689.086C598.712,696.121 598.846,700.44 602.729,708.215C611.152,725.078 634.029,729.268 656.3,718.025C671.753,710.225 690.39,692.602 699.515,677.163C702.377,672.323 706.546,667.056 707.769,664.77C710.852,659.009 715.423,650.159 712.704,648.479C712.154,648.139 707.747,650.001 702.91,652.616C692.349,658.326 678.968,661.995 672.747,663.287C670.221,663.812 667.335,662.259 665.58,660.369C662.35,656.893 657.572,646.301 653.369,642.426C644.398,634.157 633.654,630.807 618.126,632.363Z" style="fill:rgb(85,204,225);stroke:black;stroke-width:1px;"/>
                <path d="M487.354,714.583C478.595,716.928 459.771,724.747 456.244,727.058C453.222,729.038 453.108,731.107 455.87,733.869C462.408,740.407 481.601,732.942 490.031,728.598C498.058,724.462 509.245,715.322 508.799,712.986C508.353,710.651 494.278,712.729 487.354,714.583Z" style="stroke:black;stroke-width:1px;"/>
                <path d="M376.021,678.845C363.521,681.356 355.63,684.151 353.58,686.795C351.051,690.059 351.094,691.92 353.741,693.654C355.984,695.124 357.207,695.196 362.331,694.167C373.055,692.014 387.503,683.728 391.202,677.61C392.323,675.754 390.801,675.877 376.021,678.845Z" style="stroke:black;stroke-width:1px;"/>
            </g>
            <g>
                <path d="M735.339,504.486C702.618,515.386 704.823,511.151 710.025,553.103C716.758,607.399 716.249,606.411 734.252,600.116C771.042,587.252 777.735,583.218 775.893,575.02C773.003,562.156 770.912,561.689 752.103,569.704C740.102,574.817 739.336,574.63 738.354,566.342L737.757,561.304L748.327,557.538C761.083,552.994 762.508,551.68 762.206,544.746C761.754,534.352 758.894,533.216 745.276,538.023C735.348,541.527 736.036,541.753 735.314,534.751L734.75,529.291L742.625,526.033C746.956,524.242 751.887,522.206 753.582,521.509C760.604,518.623 763.159,509.825 759.248,502.003C756.88,497.266 757.07,497.247 735.339,504.486Z" style="fill:rgb(248,241,232);"/>
                <path d="M689.308,518.036C679.177,520.938 680.151,518.694 674.937,551.144C672.745,564.792 670.567,576.981 670.099,578.23C669.226,580.555 664.161,566.015 655.911,537.5C651.732,523.055 652.311,523.61 642.171,524.326C628.653,525.28 628.83,523.762 638.057,559.5C653.706,620.111 652.124,616.765 664.614,615.648C686.732,613.669 687.769,611.744 697.039,555.5C703.151,518.415 702.305,514.314 689.308,518.036Z" style="fill:rgb(248,241,232);"/>
                <path d="M603.413,526.73C601.809,528.334 601.736,531.179 602.402,565.98C603.418,618.98 603.043,617.534 615.491,616.48C629.689,615.278 628.933,616.837 627.846,591C627.372,579.725 626.63,560.982 626.196,549.348C625.633,534.231 625.03,527.741 624.082,526.598C622.091,524.2 605.84,524.303 603.413,526.73Z" style="fill:rgb(248,241,232);"/>
                <path d="M532.337,521.572C525.827,528.082 530.702,539.488 540.44,540.531C548.786,541.424 548.779,541.414 550.018,556.084C551.595,574.76 554.964,608.205 555.517,610.683C556.16,613.561 558.901,614.32 568.217,614.203C581.8,614.032 581.101,617.034 577.659,573.665C575.108,541.524 574.435,544.01 585.684,543.985C595.135,543.963 597,542.182 597,533.177C597,524.567 596.404,524.277 575,522.472C564.825,521.614 552.675,520.486 548,519.964C535.972,518.623 535.208,518.701 532.337,521.572Z" style="fill:rgb(248,241,232);"/>
                <path d="M481.665,512.491C454.796,522.739 447.08,571.965 468.593,595.892C487.274,616.67 524.867,606.925 525.409,581.164C525.623,570.976 510.694,567.798 505.985,577.029C497.625,593.416 484.278,585.188 482.417,562.5C480.734,541.974 486.818,530.414 498.115,532.673C501.687,533.387 510,540.801 510,543.272C510,547.88 521.197,549.803 525.129,545.871C539.761,531.239 504.172,503.907 481.665,512.491Z" style="fill:rgb(248,241,232);"/>
                <path d="M422.5,512.191C401.606,513.288 402.767,512.439 399.433,529.064C397.22,540.104 388.721,588.509 387.294,598.202C386.828,601.373 387.186,602.34 389.798,604.952C393.414,608.567 391.306,608.493 419.148,605.994L441.5,603.989L444.179,601.058C455.239,588.959 447.801,579.082 429.414,581.453C422.45,582.351 416.543,582.877 416.288,582.621C415.907,582.24 416.931,569.215 417.366,568.905C417.44,568.853 423.217,568.25 430.203,567.566C445.56,566.062 446,565.777 446,557.312C446,546.32 444.671,545.624 429,548.415C421.155,549.813 418.332,542.94 423.57,535.195C423.683,535.028 429.539,534.252 436.584,533.472C452.003,531.763 452.682,531.295 454.088,521.421C455.691,510.163 456.518,510.405 422.5,512.191Z" style="fill:rgb(248,241,232);"/>
                <path d="M370.038,516.159C339.612,519.095 341.56,517.506 334.684,545C317.711,612.869 317.662,618.824 334.106,615.486C345.176,613.239 345.989,612.744 346.049,608.215C346.076,606.172 348.034,596.85 350.4,587.5L354.702,570.5L365.101,569.344C370.821,568.708 375.86,568.146 376.301,568.094C377.792,567.919 380,561.09 380,556.655C380,550.356 378.673,549.614 368.532,550.246C358.621,550.865 358.96,551.051 360.252,545.702C361.734,539.564 362.29,539.287 376.339,537.709C390.741,536.092 392.476,535.18 394.046,528.401C395.443,522.372 392.974,513.461 390.095,514.14C389.768,514.218 380.742,515.126 370.038,516.159Z" style="fill:rgb(248,241,232);"/>
                <path d="M309.5,526.404C278.724,534.542 282.566,530.782 274.505,560.654C271.411,572.119 267.833,585.325 266.554,590C257.002,624.913 256.779,626.471 261.002,628.833C264.942,631.036 279.388,626.921 280.904,623.164C282.533,619.125 292,586.936 292,585.433C292,583.577 292.702,583.285 301.585,581.451C316.057,578.463 319.517,575.309 318.803,565.757C318.383,560.141 316.623,559.265 308.948,560.85C301.839,562.318 298.901,551.469 305.905,549.614C306.782,549.381 312.612,547.96 318.86,546.454C331.656,543.37 331.436,543.583 334.048,531.754C336.494,520.676 333.569,520.039 309.5,526.404Z" style="fill:rgb(248,241,232);"/>
                <path d="M247.045,539.613C215.06,548.537 213.373,551.086 192.991,621.292C184.043,652.114 182.83,650.996 216.038,642.525C248.557,634.229 245.866,635.194 247.906,631.105C256.143,614.597 252.32,610.937 231.068,614.987C218.698,617.344 219.529,617.783 222.077,610.238C224.675,602.544 224.206,602.877 238.5,598.588C252.119,594.501 254.086,592.98 255.985,585.062C258.078,576.338 256.048,575.523 241.75,579.347C231.55,582.075 231.622,582.163 235.826,572.099L238.5,565.698L251.989,562.383C266.741,558.757 267.194,558.452 269.53,550.586C274.099,535.2 270.011,533.205 247.045,539.613Z" style="fill:rgb(248,241,232);"/>
            </g>
            <g>
                <path d="M685.5,382.113C678.516,383.124 661.699,387.69 657.848,389.62C653.212,391.944 653.822,406.163 658.714,409.803C661.041,411.534 666.989,410.878 674,408.117C695.403,399.688 708.106,409.659 701.324,429.563C697.39,441.109 681.504,451.453 683.941,440.882C687.584,425.081 682.102,420.218 665.518,424.537C651.553,428.175 652.199,426.595 642.022,482.043C636.918,509.851 639.503,513.018 663.253,508.058C670.415,506.563 670.327,506.732 673.419,488.482C676.104,472.643 676.425,472.039 682.177,472.015C686.554,471.997 688.505,474.081 698.161,489.097C705.526,500.548 705.28,500.458 718.124,496.401C736.861,490.482 736.997,484.436 718.923,461.038L713.159,453.575L719.682,446.66C756.299,407.844 738.6,374.423 685.5,382.113Z" style="fill:rgb(248,241,232);stroke:black;stroke-width:1px;"/>
                <path d="M598.422,389.918C569.487,390.85 570.667,388.973 556.904,456C554.702,466.725 551.798,480.305 550.45,486.178C545.258,508.804 543.834,507.736 580.896,509L610.291,510.002L614.538,506.522C633.513,490.974 628.04,477.871 602.707,478.199C584.137,478.44 585.613,479.405 587.757,468.424L589.5,459.5L601.5,458.87C622.485,457.768 628,454.088 628,441.187C628,434.406 626.464,433.826 610.636,434.62C595.063,435.401 596.1,436.203 598.834,425.5L600.623,418.5L606.561,417.772C609.828,417.372 616.734,417.12 621.91,417.212L631.319,417.38L634.177,413.957C638.775,408.449 641.006,393.91 637.677,391.147C635.916,389.685 620.56,389.204 598.422,389.918Z" style="fill:rgb(248,241,232);stroke:black;stroke-width:1px;"/>
                <path d="M497,375.937C489.481,377.338 484.696,378.89 480.5,381.291L476.5,383.579L476.5,392.756C476.5,405.298 477.527,406.383 485.855,402.645C510.502,391.585 528.051,403.292 519.669,425.203C514.765,438.024 500,440.674 500,428.734C500,417.676 491.455,415.266 476.303,422.051C469.019,425.313 469.783,423.453 462.578,455.5C460.105,466.5 456.938,479.444 455.541,484.265C451.226,499.151 451.659,499.567 471.255,499.332C479.894,499.229 485.533,498.756 485.937,498.102C486.298,497.518 488.371,490.055 490.543,481.519L494.493,465.998L497.997,465.506C536.776,460.063 556.034,442.579 556.384,412.5C556.692,386.019 530.253,369.74 497,375.937Z" style="fill:rgb(248,241,232);stroke:black;stroke-width:1px;"/>
                <path d="M435,380.561C422.995,382.347 424.772,378.925 414.62,419.804C402.283,469.475 401.272,471.637 389.882,472.666C384.053,473.193 383.017,473.017 381.187,471.187L379.11,469.11L381.094,462.305C382.185,458.562 384.817,448.975 386.943,441C389.069,433.025 392.877,418.958 395.404,409.74C401.749,386.602 401.726,386.531 388,386.639C369.379,386.786 367.158,390.128 354.545,437C346.439,467.121 345.631,471.199 346.37,478.268C350.888,521.494 421.355,511.65 439.324,465.282C443.652,454.113 458.93,382.479 457.308,380.959C455.643,379.4 444.176,379.195 435,380.561Z" style="fill:rgb(248,241,232);stroke:black;stroke-width:1px;"/>
                <path d="M312.077,392.59C272.932,403.114 260.305,435.911 286.359,459.392C290.697,463.301 296.283,468.339 298.772,470.588C303.911,475.229 303.976,476.579 299.403,483.614C293.097,493.316 276.247,493.371 279.932,483.678C286.626,466.071 260.571,466.841 252.351,484.493C236.426,518.691 290.169,532.406 320.99,502.01C343.175,480.131 340.549,456.871 313.408,434.85C303.956,427.181 303.163,421.553 310.967,417.517C317.198,414.295 320.659,415.956 321.684,422.661C323.618,435.318 343.378,431.416 347.101,417.642C352.404,398.02 335.87,386.193 312.077,392.59Z" style="fill:rgb(248,241,232);stroke:black;stroke-width:1px;"/>
            </g>
            <g>
                <path d="M767.473,220.559C735.012,240.106 715.975,295.443 731.451,325.271C734.824,331.774 734.892,335.075 732.901,337.273C730.46,339.968 721.15,340.793 713.909,322.25C706.959,304.453 705.371,330.699 711.646,359.668L713.415,367.836L723.957,368.425C745.57,369.632 754.137,372.485 759.791,380.359C771.308,396.397 770.316,419.285 757.382,435.946C746.713,449.691 753.673,468.093 768.242,464.658C829.515,450.213 871.981,379.238 852.689,323.517L851.396,319.78L848.198,325.78C845.245,331.321 845,332.509 845,341.301C845,359.961 835.294,378.396 828.116,373.369C825.602,371.608 825.485,369.224 827.58,362.5C834.871,339.102 825.532,312.384 799.486,282.124C775.081,253.772 768.325,235.934 775.485,218.75C776.626,216.01 774.067,216.588 767.473,220.559Z" style="fill:rgb(255,115,0);stroke:black;stroke-width:2px;"/>
            </g>
            <g>
                <path d="M454.004,237.75C454.007,238.162 453.943,251.01 453.863,266.299L453.717,294.098L460.873,303.182C470.128,314.932 471.102,318.629 465.602,321.136C461.106,323.184 458.639,321.394 445.598,306.631C386.35,239.552 309.24,230.372 246.963,282.982C235.947,292.288 230.142,299.197 237.163,294.645C298.276,255.026 424.452,289.223 469.172,357.526C474.283,365.332 475.849,367.056 477.485,366.678C478.593,366.421 483.059,365.264 487.41,364.106C513.268,357.222 552.722,366.67 561.09,381.75C562.621,384.509 563.761,384.573 566.448,382.049C571.065,377.711 578.059,377 616.087,377L651.754,377L653.756,372.25C662.205,352.202 663.175,328.314 656.476,305.271C654.341,297.927 653.965,298.152 639.817,315.25C606.859,355.079 586.616,369.538 592.855,348.793C600.662,322.838 600.484,289.543 592.403,263.844C589.144,253.48 589.327,253.758 586.689,255.149C574.941,261.342 552.847,289.668 538.671,316.71C530.014,333.224 528.821,334.674 524.725,333.646C522.517,333.092 521.974,332.162 520.992,327.249C514.453,294.533 495.199,266.65 462.396,242.391C455.055,236.962 453.996,236.377 454.004,237.75Z" style="fill:rgb(123,211,127);stroke:black;stroke-width:2px;"/>
                <path d="M288,289.681C273.235,292.092 251.693,298.07 250.435,300.105C250.12,300.616 256.028,301.003 264.191,301.006C295.088,301.019 348.243,314.81 354.561,324.453C358.371,330.268 350.389,333.154 344.39,330.703C331.782,325.551 286.732,330.44 253.5,346.968C175.859,385.582 143.575,477.18 178.417,560C188.05,582.899 190.366,584.486 195.094,571.427C202.275,551.593 208.448,542.562 218.309,537.464C231.07,530.867 233.581,526.959 235.054,511.407C236.407,497.131 239.116,486.097 244.554,472.708C251.267,456.182 253.165,450.832 252.537,450.204C249.665,447.332 228.852,467.106 221.503,479.689C219.407,483.279 214.364,486.413 211.568,485.864C201.076,483.804 221.017,455.232 242.858,441.031C258.244,431.027 257.296,431.993 259.706,423.876C269.843,389.733 317.055,367.195 350.457,380.553C355.51,382.573 356.649,382.73 357.957,381.584C366.584,374.03 392.588,369.474 404.032,373.511C407.617,374.776 408.657,374.807 410.408,373.702C417.876,368.989 432.516,365.726 446.746,365.605C460.739,365.485 460.806,365.426 455.109,358.34C418.608,312.944 340.946,281.035 288,289.681Z" style="fill:rgb(123,211,127);stroke:black;stroke-width:1px;"/>
            </g>
            <path d="M180.682,668.656C184.472,672.523 314.785,636.191 301.457,650.742C296.761,655.87 289.517,666.638 288.053,682.845C286.963,694.907 289.96,707.104 299.528,717.398C309.804,728.451 320.381,733.009 335.593,732.939C350.625,732.871 358.374,730.347 379.48,718.647C388.178,713.826 404.92,706.618 407.422,706.618C407.693,706.618 407.397,707.241 406.766,708.001C406.135,708.761 404.848,712.652 403.908,716.647C400.002,733.231 405.559,756.428 416.21,768.001C421.618,773.877 425.912,776.713 434.384,780.004C443.493,783.543 460.522,783.612 471.535,780.154C494.246,773.024 514.703,758.447 549.143,724.853C566.193,708.222 570.972,704.522 575.402,704.522C579.453,704.522 583.83,708.072 588.592,715.223C595.499,725.593 601.684,731.452 609.667,735.187C615.894,738.102 617.965,738.514 628.244,738.888C642.142,739.392 651.868,737.176 664.967,730.515C688.659,718.468 704.989,702.535 718.141,675.609C721.037,669.678 737.883,636.174 726.205,629.962C719.975,626.648 720.129,621.328 729.598,619.905C758.416,615.572 784.319,599.018 787.446,596.102C795.69,588.416 794.832,570.752 791.641,558.25C790.132,552.337 787.136,540.975 784.983,533C782.83,525.025 780.348,515.014 779.467,510.752C778.108,504.181 777.189,502.213 773.414,497.79C769.424,493.116 767.793,489.597 766.815,483.55C766.55,481.906 768.148,481.002 776.988,477.793C834.493,456.923 873.899,404.155 871.673,351C870.662,326.836 860.81,294.149 853.541,290.837C848.525,288.551 846.224,291.749 839.525,310.311C837.525,315.85 837.435,315.822 834.562,308.754C829.303,295.816 822.185,285.745 804.736,266.557C785.8,245.733 783.245,237.35 789.591,216.863C795.083,199.134 791.442,194.108 776.971,199.442C745.326,211.105 725.303,237.96 716.539,278.13C715.879,281.155 715.598,294.265 714.133,295.615C712.669,296.965 710.182,287.524 707.752,286.229C701.282,282.78 698.702,287.787 696.856,299.754C695.385,309.294 694.944,355.402 696.254,362.704C697.116,367.507 698.622,366.847 682,368.953C677.325,369.546 672.412,370.321 671.081,370.676C668.984,371.236 668.772,371.067 669.485,369.411C678.065,349.466 676.481,313.792 665.982,290.524C664.983,288.311 663.255,284.365 662.142,281.755C657.678,271.294 653.388,272.942 642.583,289.267C634.868,300.924 614.712,325 612.668,325C611.819,325 611.5,319.879 611.5,306.25C611.5,284.428 610.573,279.221 601.345,249.232C594.879,228.218 592.382,228.464 568.5,252.463C554.495,266.538 537.764,288.149 531.117,300.75C529.371,304.059 528.608,303.579 526.137,297.616C515.199,271.227 488.243,241.213 460.162,224.158C440.607,212.281 437.424,214.022 438.99,235.738C440.088,250.971 440.348,280 439.386,280C439.048,280 436.235,277.838 433.136,275.195C367.588,219.306 285.613,223.317 224.5,285.401C198.975,311.332 196.385,328.269 218.978,321.507C245.332,313.618 270.571,311.613 292.985,315.627C297.908,316.509 300.293,317.93 296.917,317.97C284.706,318.113 249.763,331.263 233.519,341.827C189.219,370.636 164.33,407.226 152.799,460.5C150.412,471.526 151.071,514.304 153.827,527.223C159.545,554.026 171.863,582.618 183.333,595.706C185.508,598.188 185.602,597.609 180.033,615.954C168.485,653.997 170.703,658.477 180.682,668.656ZM618.126,632.363C608.127,633.365 595.699,637.173 562.265,649.477C519.265,665.302 499.018,671.206 488.4,671.232C483.708,671.243 482.927,668.125 484.169,660.502C486.418,646.683 486.561,637.686 480.962,634.792C474.138,631.263 449.813,633.238 401.892,641.215C341.88,651.205 326.621,654.322 319.092,658.125C308.326,663.565 300.742,674.917 300.761,685.562C300.78,696.642 308.915,708.905 320.14,714.776C324.84,717.233 326.571,717.522 336.91,717.57C347.696,717.62 348.878,717.414 355.252,714.373C358.999,712.586 368.771,706.607 376.969,701.084C385.166,695.563 400.258,686.808 410.508,681.629C420.757,676.451 430.815,671.074 432.859,669.68C440.009,664.802 449.212,663.185 453.203,666.103C455.824,668.019 454.637,672.483 450.875,674.868C446.175,677.847 434.582,687.778 431.703,691.293C422.652,702.338 417.73,715.057 417.662,727.58C417.562,746.183 425.004,760.229 437.69,765.378C449.577,770.202 470.522,766.33 488.594,755.967C505.656,746.184 521.611,732.122 552.332,699.792C563.44,688.102 585.835,669.948 595.909,664.464C602.323,660.974 615.949,656.455 622.583,655.618C626.297,655.15 627.771,655.423 629.19,656.842C632.343,659.995 630.892,662.824 624.091,666.774C615.518,671.754 605.73,681.7 602.136,689.086C598.712,696.121 598.846,700.44 602.729,708.215C611.152,725.078 634.029,729.268 656.3,718.025C671.753,710.225 690.39,692.602 699.515,677.163C702.377,672.323 706.546,667.056 707.769,664.77C710.852,659.009 715.423,650.159 712.704,648.479C712.154,648.139 707.747,650.001 702.91,652.616C692.349,658.326 678.968,661.995 672.747,663.287C670.221,663.812 667.335,662.259 665.58,660.369C662.35,656.893 657.572,646.301 653.369,642.426C644.398,634.157 633.654,630.807 618.126,632.363ZM487.354,714.583C480.574,716.405 459.771,724.747 456.244,727.058C453.222,729.038 453.108,731.107 455.87,733.869C462.408,740.407 488.775,731.665 503.252,718.161L508.799,712.986L500.938,713.016C496.615,713.031 490.501,713.737 487.354,714.583ZM376.021,678.845C363.521,681.356 355.63,684.151 353.58,686.795C351.051,690.059 351.094,691.92 353.741,693.654C355.984,695.124 357.207,695.196 362.331,694.167C373.055,692.014 387.503,683.728 391.202,677.61C392.323,675.754 390.801,675.877 376.021,678.845ZM247.045,539.613C215.06,548.537 213.373,551.086 192.991,621.292C184.043,652.114 182.83,650.996 216.038,642.525C248.557,634.229 245.866,635.194 247.906,631.105C256.143,614.597 252.32,610.937 231.068,614.987C218.698,617.344 219.529,617.783 222.077,610.238C224.675,602.544 224.206,602.877 238.5,598.588C252.119,594.501 254.086,592.98 255.985,585.062C258.078,576.338 256.048,575.523 241.75,579.347C231.55,582.075 231.622,582.163 235.826,572.099L238.5,565.698L251.989,562.383C266.741,558.757 267.194,558.452 269.53,550.586C274.099,535.2 270.011,533.205 247.045,539.613ZM309.5,526.404C278.724,534.542 282.566,530.782 274.505,560.654C271.411,572.119 267.833,585.325 266.554,590C257.002,624.913 256.779,626.471 261.002,628.833C264.942,631.036 279.388,626.921 280.904,623.164C282.533,619.125 292,586.936 292,585.433C292,583.577 292.702,583.285 301.585,581.451C316.057,578.463 319.517,575.309 318.803,565.757C318.383,560.141 316.623,559.265 308.948,560.85C301.839,562.318 298.901,551.469 305.905,549.614C306.782,549.381 312.612,547.96 318.86,546.454C331.656,543.37 331.436,543.583 334.048,531.754C336.494,520.676 333.569,520.039 309.5,526.404ZM603.413,526.73C601.809,528.334 601.736,531.179 602.402,565.98C603.418,618.98 603.043,617.534 615.491,616.48C629.689,615.278 628.933,616.837 627.846,591C627.372,579.725 626.63,560.982 626.196,549.348C625.633,534.231 625.03,527.741 624.082,526.598C622.091,524.2 605.84,524.303 603.413,526.73ZM370.038,516.159C339.612,519.095 341.56,517.506 334.684,545C317.711,612.869 317.662,618.824 334.106,615.486C345.176,613.239 345.989,612.744 346.049,608.215C346.076,606.172 348.034,596.85 350.4,587.5L354.702,570.5L365.101,569.344C370.821,568.708 375.86,568.146 376.301,568.094C377.792,567.919 380,561.09 380,556.655C380,550.356 378.673,549.614 368.532,550.246C358.621,550.865 358.96,551.051 360.252,545.702C361.734,539.564 362.29,539.287 376.339,537.709C390.741,536.092 392.476,535.18 394.046,528.401C395.443,522.372 392.974,513.461 390.095,514.14C389.768,514.218 380.742,515.126 370.038,516.159ZM689.308,518.036C679.177,520.938 680.151,518.694 674.937,551.144C672.745,564.792 670.567,576.981 670.099,578.23C669.226,580.555 664.161,566.015 655.911,537.5C651.732,523.055 652.311,523.61 642.171,524.326C628.653,525.28 628.83,523.762 638.057,559.5C653.706,620.111 652.124,616.765 664.614,615.648C686.732,613.669 687.769,611.744 697.039,555.5C703.151,518.415 702.305,514.314 689.308,518.036ZM532.337,521.572C525.827,528.082 530.702,539.488 540.44,540.531C548.786,541.424 548.779,541.414 550.018,556.084C551.595,574.76 554.964,608.205 555.517,610.683C556.16,613.561 558.901,614.32 568.217,614.203C581.8,614.032 581.101,617.034 577.659,573.665C575.108,541.524 574.435,544.01 585.684,543.985C595.135,543.963 597,542.182 597,533.177C597,524.567 596.404,524.277 575,522.472C564.825,521.614 552.675,520.486 548,519.964C535.972,518.623 535.208,518.701 532.337,521.572ZM422.5,512.191C401.606,513.288 402.767,512.439 399.433,529.064C397.22,540.104 388.721,588.509 387.294,598.202C386.828,601.373 387.186,602.34 389.798,604.952C393.414,608.567 391.306,608.493 419.148,605.994L441.5,603.989L444.179,601.058C455.239,588.959 447.801,579.082 429.414,581.453C422.45,582.351 416.543,582.877 416.288,582.621C415.907,582.24 416.931,569.215 417.366,568.905C417.44,568.853 423.217,568.25 430.203,567.566C445.56,566.062 446,565.777 446,557.312C446,546.32 444.671,545.624 429,548.415C421.155,549.813 418.332,542.94 423.57,535.195C423.683,535.028 429.539,534.252 436.584,533.472C452.003,531.763 452.682,531.295 454.088,521.421C455.691,510.163 456.518,510.405 422.5,512.191ZM481.665,512.491C454.796,522.739 447.08,571.965 468.593,595.892C487.274,616.67 524.867,606.925 525.409,581.164C525.623,570.976 510.694,567.798 505.985,577.029C497.625,593.416 484.278,585.188 482.417,562.5C480.734,541.974 486.818,530.414 498.115,532.673C501.687,533.387 510,540.801 510,543.272C510,547.88 521.197,549.803 525.129,545.871C539.761,531.239 504.172,503.907 481.665,512.491ZM735.339,504.486C702.618,515.386 704.823,511.151 710.025,553.103C716.758,607.399 716.249,606.411 734.252,600.116C771.042,587.252 777.735,583.218 775.893,575.02C773.003,562.156 770.912,561.689 752.103,569.704C740.102,574.817 739.336,574.63 738.354,566.342L737.757,561.304L748.327,557.538C761.083,552.994 762.508,551.68 762.206,544.746C761.754,534.352 758.894,533.216 745.276,538.023C735.348,541.527 736.036,541.753 735.314,534.751L734.75,529.291L742.625,526.033C746.956,524.242 751.887,522.206 753.582,521.509C760.604,518.623 763.159,509.825 759.248,502.003C756.88,497.266 757.07,497.247 735.339,504.486ZM288,289.681C273.235,292.092 251.693,298.07 250.435,300.105C250.12,300.616 256.028,301.003 264.191,301.006C295.088,301.019 348.243,314.81 354.561,324.453C358.371,330.268 350.389,333.154 344.39,330.703C331.782,325.551 286.732,330.44 253.5,346.968C175.859,385.582 143.575,477.18 178.417,560C188.05,582.899 190.366,584.486 195.094,571.427C202.275,551.593 208.448,542.562 218.309,537.464C231.07,530.867 233.581,526.959 235.054,511.407C236.407,497.131 239.116,486.097 244.554,472.708C251.267,456.182 253.165,450.832 252.537,450.204C249.665,447.332 228.852,467.106 221.503,479.689C219.407,483.279 214.364,486.413 211.568,485.864C201.076,483.804 221.017,455.232 242.858,441.031C258.244,431.027 257.296,431.993 259.706,423.876C269.843,389.733 317.055,367.195 350.457,380.553C355.51,382.573 356.649,382.73 357.957,381.584C366.584,374.03 392.588,369.474 404.032,373.511C407.617,374.776 408.657,374.807 410.408,373.702C417.876,368.989 432.516,365.726 446.746,365.605C460.739,365.485 460.806,365.426 455.109,358.34C418.608,312.944 340.946,281.035 288,289.681ZM312.077,392.59C272.932,403.114 260.305,435.911 286.359,459.392C290.697,463.301 296.283,468.339 298.772,470.588C303.911,475.229 303.976,476.579 299.403,483.614C293.097,493.316 276.247,493.371 279.932,483.678C286.626,466.071 260.571,466.841 252.351,484.493C236.426,518.691 290.169,532.406 320.99,502.01C343.175,480.131 340.549,456.871 313.408,434.85C303.956,427.181 303.163,421.553 310.967,417.517C317.198,414.295 320.659,415.956 321.684,422.661C323.618,435.318 343.378,431.416 347.101,417.642C352.404,398.02 335.87,386.193 312.077,392.59ZM598.422,389.918C569.487,390.85 570.667,388.973 556.904,456C554.702,466.725 551.798,480.305 550.45,486.178C545.258,508.804 543.834,507.736 580.896,509L610.291,510.002L614.538,506.522C633.513,490.974 628.04,477.871 602.707,478.199C584.137,478.44 585.613,479.405 587.757,468.424L589.5,459.5L601.5,458.87C622.485,457.768 628,454.088 628,441.187C628,434.406 626.464,433.826 610.636,434.62C595.063,435.401 596.1,436.203 598.834,425.5L600.623,418.5L606.561,417.772C609.828,417.372 616.734,417.12 621.91,417.212L631.319,417.38L634.177,413.957C638.775,408.449 641.006,393.91 637.677,391.147C635.916,389.685 620.56,389.204 598.422,389.918ZM685.5,382.113C678.516,383.124 661.699,387.69 657.848,389.62C653.212,391.944 653.822,406.163 658.714,409.803C661.041,411.534 666.989,410.878 674,408.117C695.403,399.688 708.106,409.659 701.324,429.563C697.39,441.109 681.504,451.453 683.941,440.882C687.584,425.081 682.102,420.218 665.518,424.537C651.553,428.175 652.199,426.595 642.022,482.043C636.918,509.851 639.503,513.018 663.253,508.058C670.415,506.563 670.327,506.732 673.419,488.482C676.104,472.643 676.425,472.039 682.177,472.015C686.554,471.997 688.505,474.081 698.161,489.097C705.526,500.548 705.28,500.458 718.124,496.401C736.861,490.482 736.997,484.436 718.923,461.038L713.159,453.575L719.682,446.66C756.299,407.844 738.6,374.423 685.5,382.113ZM435,380.561C422.995,382.347 424.772,378.925 414.62,419.804C402.283,469.475 401.272,471.637 389.882,472.666C384.053,473.193 383.017,473.017 381.187,471.187L379.11,469.11L381.094,462.305C382.185,458.562 384.817,448.975 386.943,441C389.069,433.025 392.877,418.958 395.404,409.74C401.749,386.602 401.726,386.531 388,386.639C369.379,386.786 367.158,390.128 354.545,437C346.439,467.121 345.631,471.199 346.37,478.268C350.888,521.494 421.355,511.65 439.324,465.282C443.652,454.113 458.93,382.479 457.308,380.959C455.643,379.4 444.176,379.195 435,380.561ZM497,375.937C489.481,377.338 484.696,378.89 480.5,381.291L476.5,383.579L476.5,392.756C476.5,405.298 477.527,406.383 485.855,402.645C510.502,391.585 528.051,403.292 519.669,425.203C514.765,438.024 500,440.674 500,428.734C500,417.676 491.455,415.266 476.303,422.051C469.019,425.313 469.783,423.453 462.578,455.5C460.105,466.5 456.938,479.444 455.541,484.265C451.226,499.151 451.659,499.567 471.255,499.332C479.894,499.229 485.533,498.756 485.937,498.102C486.298,497.518 488.371,490.055 490.543,481.519L494.493,465.998L497.997,465.506C536.776,460.063 556.034,442.579 556.384,412.5C556.692,386.019 530.253,369.74 497,375.937ZM767.473,220.559C735.012,240.106 715.975,295.443 731.451,325.271C734.824,331.774 734.892,335.075 732.901,337.273C730.46,339.968 721.15,340.793 713.909,322.25C706.959,304.453 705.371,330.699 711.646,359.668L713.415,367.836L723.957,368.425C745.57,369.632 754.137,372.485 759.791,380.359C771.308,396.397 770.316,419.285 757.382,435.946C746.713,449.691 753.673,468.093 768.242,464.658C829.515,450.213 871.981,379.238 852.689,323.517L851.396,319.78L848.198,325.78C845.245,331.321 845,332.509 845,341.301C845,359.961 835.294,378.396 828.116,373.369C825.602,371.608 825.485,369.224 827.58,362.5C834.871,339.102 825.532,312.384 799.486,282.124C775.081,253.772 768.325,235.934 775.485,218.75C776.626,216.01 774.067,216.588 767.473,220.559ZM454.004,237.75C454.007,238.162 453.943,251.01 453.863,266.299L453.717,294.098L460.873,303.182C470.128,314.932 471.102,318.629 465.602,321.136C461.106,323.184 458.639,321.394 445.598,306.631C386.35,239.552 309.24,230.372 246.963,282.982C235.947,292.288 230.142,299.197 237.163,294.645C298.276,255.026 424.452,289.223 469.172,357.526C474.283,365.332 475.849,367.056 477.485,366.678C478.593,366.421 483.059,365.264 487.41,364.106C513.268,357.222 552.722,366.67 561.09,381.75C562.621,384.509 563.761,384.573 566.448,382.049C571.065,377.711 578.059,377 616.087,377L651.754,377L653.756,372.25C662.205,352.202 663.175,328.314 656.476,305.271C654.341,297.927 653.965,298.152 639.817,315.25C606.859,355.079 586.616,369.538 592.855,348.793C600.662,322.838 600.484,289.543 592.403,263.844C589.144,253.48 589.327,253.758 586.689,255.149C574.941,261.342 552.847,289.668 538.671,316.71C530.014,333.224 528.821,334.674 524.725,333.646C522.517,333.092 521.974,332.162 520.992,327.249C514.453,294.533 495.199,266.65 462.396,242.391C455.055,236.962 453.996,236.377 454.004,237.75Z"/>
        </g>
    </g>
    <g transform="matrix(0.682871,0,0,0.624333,306.521,105.43)">
        <path d="M357.641,105.634L456.072,101.437L469.447,115.121L428.824,184.431L458.5,190L464.5,192L488,213.5L488,218.5L324.683,374.42L316.405,374.464L307.057,360.214L335.462,258.5L315.781,255.74L304,241.5L299.281,233.568L357.641,105.634Z"/>
        <g transform="matrix(1.08671,0,0,1.04933,-25.9514,-18.4711)">
            <path d="M354.945,110.213L453.377,106.017L466.752,119.7L428.824,184.431L458.5,190L464.5,192L488,213.5L488,218.5L324.683,374.42L316.405,374.464L307.057,360.214L335.462,258.5L315.781,255.74L299.142,239.973L299.281,233.568L354.945,110.213Z"/>
        </g>
        <path d="M368.5,118.5L437.568,120.509L392.5,193.397L452.5,200.397L323.526,352.933L323.526,348.933L358.5,233.5L314.5,233L368.5,118.5Z" style="fill:rgb(255,238,0);"/>
    </g>
</svg>
