<svg clip-rule="evenodd" fill-rule="evenodd" stroke-linejoin="round" stroke-miterlimit="2" viewBox="0 0 475 475" xmlns="http://www.w3.org/2000/svg"><g transform="matrix(.593421 0 0 .601768 9.08 8.907)"><path d="m-15.297-14.801h800.443v789.341h-800.443z" fill="none"/><g transform="matrix(1.68514 0 0 1.74285 -224.26593177 -312.159612961)"><path d="m372.43 278.093c1.62-.396 3.223-.751 4.809-1.064.862-1.754 1.193-5.465 1.695-13.635 1.359-22.144 7.668-47.336 13.712-54.751 1.357-1.665 1.15-1.802 6.49 4.288 13.243 15.102 23.459 37.505 26.065 57.16 2.084 15.709 11.35.378 21.497-35.566 4.356-15.43 4.541-15.686 8.208-11.322 11.505 13.692 18.095 30.068 18.477 45.917l.005.235c6.393-8.437 13.965-15.54 22.344-20.31 6.696-3.813 9.269-4.33 8.057-1.618-7.608 17.008-1.321 35.002 22.334 63.926 25.245 30.87 33.882 57.802 25.98 81.019-2.27 6.672-2.215 9.059.252 10.879 7.044 5.196 17.23-13.002 17.718-31.656.23-8.79.506-9.971 3.604-15.44l3.354-5.922 1.194 3.766c17.539 55.256-25.069 123.849-85.143 138.414 3.654 3.465 7.786 12.596 10.587 15.611 1.536 1.654 4.062 3.013 6.273 2.554 5.445-1.131 17.157-4.343 26.401-9.341 4.233-2.288 8.091-3.918 8.571-3.62 2.381 1.47-1.62 9.217-4.319 14.259-1.07 2-4.719 6.611-7.224 10.847-7.986 13.513-24.299 28.937-37.825 35.764-19.493 9.841-39.516 6.174-46.888-8.585-3.399-6.806-3.516-10.586-.519-16.743 3.146-6.465 11.713-15.17 19.216-19.529 5.953-3.457 7.223-5.933 4.463-8.694-1.241-1.241-2.532-1.48-5.782-1.07-5.807.732-17.733 4.687-23.347 7.742-8.818 4.8-28.419 20.69-38.141 30.921-26.889 28.297-40.854 40.605-55.788 49.168-15.817 9.07-34.15 12.46-44.554 8.237-11.104-4.507-17.618-16.801-17.53-33.083.06-10.961 4.368-22.094 12.289-31.761.755-.921 2.194-2.347 3.951-3.962-4.622-1.495-8.934-3.355-12.851-5.554-1.193-.67-2.354-1.37-3.481-2.099-1.99 1.031-4.075 2.099-6.17 3.157-8.971 4.533-22.181 12.195-29.355 17.028-7.175 4.834-15.728 10.067-19.008 11.631-5.579 2.662-6.613 2.842-16.054 2.798-9.049-.042-10.564-.294-14.678-2.445-9.825-5.139-16.945-15.872-16.962-25.57-.016-9.317 6.622-19.253 16.045-24.014 4.438-2.242 12.073-8.994 32.632-15.836-28.941-45.27-32.04-100.855-5.226-138.047 13.489-18.709 29.219-31.886 37.8-31.282 4.083.288 7.651-3.475 3.767-6.529-6.442-5.065-40.216-2.267-57.42 4.756-4.545 1.856-7.952 2.94-7.931 2.523.083-1.658 10.263-10.592 17.751-15.579 22.586-15.039 63.605-14.711 96.353-.956 2.036-1.775 4.181-3.502 6.433-5.172-52.781-20.347-129.918-6.678-155.638 31.698-3.354 5.005-1.535-1.254 3.072-10.566 26.042-52.646 80.825-67.714 141.119-38.814 13.271 6.36 15.478 6.887 17.888 4.267 2.949-3.207 1.171-5.432-8.633-10.804l-7.58-4.153-8.332-18.786c-4.582-10.332-8.435-19.014-8.562-19.291-.422-.923.47-.821 7.067.817 29.476 7.315 50.916 20.81 65.246 41.069.969 1.37 1.633 2.22 2.222 2.718zm97.404-3.731-20.413 8.346c-5.397 2.206-9.857 4.055-13.553 5.638.21.177.418.355.624.535 3.461 1.509 6.635 3.304 9.49 5.347 3.875 2.771 7.27 6.009 10.089 9.674 3.049-10.327 7.766-20.518 13.763-29.54zm-219.605 249.833c-10.94 2.197-17.847 4.644-19.641 6.959-2.214 2.856-2.176 4.485.141 6.003 1.963 1.286 3.033 1.349 7.518.448 9.386-1.884 22.032-9.137 25.27-14.491.981-1.625-.351-1.517-13.288 1.081zm138.611-20.621c4.898-3.356 9.615-7.213 14.059-11.596.976-.963 1.925-1.927 2.846-2.893l.508-1.626c-1.842 2.047-3.792 4.087-5.852 6.118-3.703 3.652-7.569 6.98-11.561 9.997zm-41.165 51.901c-7.667 2.053-24.143 8.896-27.23 10.919-2.644 1.733-2.744 3.544-.327 5.961 5.722 5.723 22.521-.811 29.9-4.613 7.025-3.62 16.817-11.62 16.427-13.664-.391-2.045-12.71-.226-18.77 1.397zm103.748-69.916c4.302-1.129 7.638-1.74 10.711-2.048 4.796-.48 9.071-.426 12.939.163-1.558-5.798-.234-13.231 4.931-19.55 1.855-2.268 3.483-4.662 4.882-7.147z"/><path d="m292.99 259.136-.348-.785c-4.545-10.248-8.366-18.86-8.492-19.134l-.008-.018c-2.029-4.444-1.441-8.156-.511-10.743 1.353-3.763 3.934-7.124 9.263-8.959 1.189-.41 5.543-1.589 15.846.968 23.235 5.766 41.98 15.045 56.716 27.876 3.081-21.109 9.674-41.515 15.346-48.474 2.951-3.62 5.931-5.088 8.232-5.795 3.806-1.17 8.433-1.745 14.227 2.267 1.2.832 3.403 2.879 7.383 7.418 7.883 8.99 14.819 20.271 20.046 32.18.523-1.682 1.034-3.396 1.524-5.129 2.719-9.635 4.606-14.591 5.927-16.648 2.133-3.323 4.626-5.022 6.75-6.051 4.713-2.284 13.515-3.614 21.721 6.151 6.772 8.06 12.071 16.917 15.747 26.093 1.858-1.291 3.754-2.49 5.682-3.587 6.928-3.945 11.838-5.159 14.097-5.307 4.827-.314 8.226 1.206 10.633 2.904 4.007 2.828 9.276 8.696 4.816 18.672l-.001.003c-3.018 6.747-2.158 13.691 1.935 22.327 3.735 7.882 9.866 16.721 18.431 27.193 11.883 14.531 20.313 28.385 25.519 41.516l.361-.637c2.879-5.082 8.68-8.015 14.707-7.434s11.096 4.561 12.849 10.089l1.194 3.764c14.795 46.609-8.15 101.721-48.989 133.463.01-.001.019-.001.028-.002 4.484-.3 7.537 1.114 9.452 2.298 4.153 2.566 7.32 6.737 7.556 13.056.165 4.419-3.38 13.553-6.673 19.706-1.119 2.092-4.898 6.938-7.517 11.368-9.253 15.655-28.204 33.473-43.874 41.382-28.285 14.279-56.753 6.34-67.45-15.076-3.597-7.204-4.947-12.446-4.261-17.874-5.726 4.79-11.316 9.878-15.19 13.955-28.438 29.927-43.38 42.766-59.174 51.821-20.543 11.78-44.646 14.625-58.159 9.14-15.826-6.424-26.78-23.108-26.654-46.316.038-7.096 1.43-14.264 4.115-21.214-6.015 3.415-12.053 7.067-16.077 9.778-7.895 5.318-17.345 11.02-20.954 12.742-7.957 3.796-9.37 4.371-22.837 4.308-13.519-.063-15.673-.994-21.818-4.208-14.55-7.608-24.724-23.724-24.749-38.085-.025-14.149 9.711-29.445 24.022-36.676 3.301-1.667 8.298-5.63 18.5-10.35-24.014-47.301-23.433-101.546 3.568-138.997 3.754-5.207 7.687-10.017 11.627-14.314-3.553.678-6.753 1.504-9.215 2.509-5.68 2.319-10.332 3.51-11.83 3.669-2.113.225-3.748.024-4.879-.194-4.428-.852-7.092-3.06-8.816-5.111-.482-.573-.916-1.168-1.299-1.786-3.712 3.173-6.91 6.666-9.472 10.489-8.679 12.951-20.842 7.095-22.742 5.856-2.074-1.353-4.017-3.281-5.33-6.146-.675-1.474-1.471-3.771-1.257-6.976.132-1.971 2.078-8.782 6.194-17.102 15.085-30.494 38.757-49.826 67.125-57.628 20.289-5.58 43.218-5.228 67.437 1.795zm79.44 18.957c-.589-.498-1.253-1.348-2.222-2.718-14.33-20.259-35.77-33.754-65.246-41.069-6.597-1.638-7.489-1.74-7.067-.817.127.277 3.98 8.959 8.562 19.291l8.332 18.786 7.58 4.153c9.804 5.372 11.582 7.597 8.633 10.804-2.41 2.62-4.617 2.093-17.888-4.267-60.294-28.9-115.077-13.832-141.119 38.814-4.607 9.312-6.426 15.571-3.072 10.566 25.72-38.376 102.857-52.045 155.638-31.698-2.252 1.67-4.397 3.397-6.433 5.172-32.748-13.755-73.767-14.083-96.353.956-7.488 4.987-17.668 13.921-17.751 15.579-.021.417 3.386-.667 7.931-2.523 17.204-7.023 50.978-9.821 57.42-4.756 3.884 3.054.316 6.817-3.767 6.529-8.581-.604-24.311 12.573-37.8 31.282-26.814 37.192-23.715 92.777 5.226 138.047-20.559 6.842-28.194 13.594-32.632 15.836-9.423 4.761-16.061 14.697-16.045 24.014.017 9.698 7.137 20.431 16.962 25.57 4.114 2.151 5.629 2.403 14.678 2.445 9.441.044 10.475-.136 16.054-2.798 3.28-1.564 11.833-6.797 19.008-11.631 7.174-4.833 20.384-12.495 29.355-17.028 2.095-1.058 4.18-2.126 6.17-3.157 1.127.729 2.288 1.429 3.481 2.099 3.917 2.199 8.229 4.059 12.851 5.554-1.757 1.615-3.196 3.041-3.951 3.962-7.921 9.667-12.229 20.8-12.289 31.761-.088 16.282 6.426 28.576 17.53 33.083 10.404 4.223 28.737.833 44.554-8.237 14.934-8.563 28.899-20.871 55.788-49.168 9.722-10.231 29.323-26.121 38.141-30.921 5.614-3.055 17.54-7.01 23.347-7.742 3.25-.41 4.541-.171 5.782 1.07 2.76 2.761 1.49 5.237-4.463 8.694-7.503 4.359-16.07 13.064-19.216 19.529-2.997 6.157-2.88 9.937.519 16.743 7.372 14.759 27.395 18.426 46.888 8.585 13.526-6.827 29.839-22.251 37.825-35.764 2.505-4.236 6.154-8.847 7.224-10.847 2.699-5.042 6.7-12.789 4.319-14.259-.48-.298-4.338 1.332-8.571 3.62-9.244 4.998-20.956 8.21-26.401 9.341-2.211.459-4.737-.9-6.273-2.554-2.801-3.015-6.933-12.146-10.587-15.611 60.074-14.565 102.682-83.158 85.143-138.414l-1.194-3.766-3.354 5.922c-3.098 5.469-3.374 6.65-3.604 15.44-.488 18.654-10.674 36.852-17.718 31.656-2.467-1.82-2.522-4.207-.252-10.879 7.902-23.217-.735-50.149-25.98-81.019-23.655-28.924-29.942-46.918-22.334-63.926 1.212-2.712-1.361-2.195-8.057 1.618-8.379 4.77-15.951 11.873-22.344 20.31l-.005-.235c-.382-15.849-6.972-32.225-18.477-45.917-3.667-4.364-3.852-4.108-8.208 11.322-10.147 35.944-19.413 51.275-21.497 35.566-2.606-19.655-12.822-42.058-26.065-57.16-5.34-6.09-5.133-5.953-6.49-4.288-6.044 7.415-12.353 32.607-13.712 54.751-.502 8.17-.833 11.881-1.695 13.635-1.586.313-3.189.668-4.809 1.064zm-24.755 277.382c6.06-1.623 18.379-3.442 18.77-1.397.39 2.044-9.402 10.044-16.427 13.664-7.379 3.802-24.178 10.336-29.9 4.613-2.417-2.417-2.317-4.228.327-5.961 3.087-2.023 19.563-8.866 27.23-10.919zm103.748-69.916 33.463-28.582c-1.399 2.485-3.027 4.879-4.882 7.147-5.165 6.319-6.489 13.752-4.931 19.55-3.868-.589-8.143-.643-12.939-.163-3.073.308-6.409.919-10.711 2.048zm-201.194 38.636c12.937-2.598 14.269-2.706 13.288-1.081-3.238 5.354-15.884 12.607-25.27 14.491-4.485.901-5.555.838-7.518-.448-2.317-1.518-2.355-3.147-.141-6.003 1.794-2.315 8.701-4.762 19.641-6.959zm138.611-20.621c3.992-3.017 7.858-6.345 11.561-9.997 2.06-2.031 4.01-4.071 5.852-6.118l-.508 1.626c-.921.966-1.87 1.93-2.846 2.893-4.444 4.383-9.161 8.24-14.059 11.596zm80.994-229.212c-5.997 9.022-10.714 19.213-13.763 29.54-2.819-3.665-6.214-6.903-10.089-9.674-2.855-2.043-6.029-3.838-9.49-5.347-.206-.18-.414-.358-.624-.535 3.696-1.583 8.156-3.432 13.553-5.638z"/></g><g transform="matrix(1.68461423632 .0414880214 -.0441242113 1.7423062308 -678.79368855 -307.528581655)"><path d="m767.473 220.559c-32.461 19.547-51.498 74.884-36.022 104.712 3.373 6.503 3.441 9.804 1.45 12.002-2.441 2.695-11.751 3.52-18.992-15.023-6.95-17.797-8.538 8.449-2.263 37.418l1.769 8.168 10.542.589c21.613 1.207 30.18 4.06 35.834 11.934 11.517 16.038 10.525 38.926-2.409 55.587-10.669 13.745-3.709 32.147 10.86 28.712 61.273-14.445 103.739-85.42 84.447-141.141l-1.293-3.737-3.198 6c-2.953 5.541-3.198 6.729-3.198 15.521 0 18.66-9.706 37.095-16.884 32.068-2.514-1.761-2.631-4.145-.536-10.869 7.291-23.398-2.048-50.116-28.094-80.376-24.405-28.352-31.161-46.19-24.001-63.374 1.141-2.74-1.418-2.162-8.012 1.809z" fill="#ff7300"/><path d="m711.11 302.128c-.301-12.048 1.813-24.998 6.123-37.526 8.003-23.263 23.357-44.771 42.23-56.135 6.822-4.109 11.699-5.439 13.954-5.64 4.817-.43 8.255 1.009 10.706 2.649 4.08 2.731 9.5 8.473 5.303 18.552l-.001.003c-2.84 6.817-1.799 13.737 2.519 22.274 3.94 7.791 10.301 16.481 19.137 26.746 12.26 14.243 21.051 27.892 26.599 40.895l.344-.646c2.744-5.149 8.467-8.218 14.507-7.781 6.041.437 11.212 4.295 13.11 9.78l1.292 3.735c10.937 31.59 4.762 67.554-13.227 97.619-17.887 29.896-47.32 53.745-81.863 61.889-27.216 6.417-46.448-25.428-26.518-51.105 9.078-11.694 10.173-27.741 2.089-38.998-1.438-2.003-3.532-2.908-6.788-3.688-4.417-1.057-10.086-1.632-17.546-2.048l-10.542-.589c-6.776-.379-12.44-5.048-13.813-11.386l-1.769-8.167c-3.939-18.184-4.868-35.43-3.771-43.566.656-4.868 2.27-8.194 3.587-10.038 4.02-5.626 9.104-7.349 14.338-6.829zm56.363-81.569c-32.461 19.547-51.498 74.884-36.022 104.712 3.373 6.503 3.441 9.804 1.45 12.002-2.441 2.695-11.751 3.52-18.992-15.023-6.95-17.797-8.538 8.449-2.263 37.418l1.769 8.168 10.542.589c21.613 1.207 30.18 4.06 35.834 11.934 11.517 16.038 10.525 38.926-2.409 55.587-10.669 13.745-3.709 32.147 10.86 28.712 61.273-14.445 103.739-85.42 84.447-141.141l-1.293-3.737-3.198 6c-2.953 5.541-3.198 6.729-3.198 15.521 0 18.66-9.706 37.095-16.884 32.068-2.514-1.761-2.631-4.145-.536-10.869 7.291-23.398-2.048-50.116-28.094-80.376-24.405-28.352-31.161-46.19-24.001-63.374 1.141-2.74-1.418-2.162-8.012 1.809z"/></g><g transform="matrix(1.13636067788 -.4804793451 .51100859416 1.1752769547 -366.416590526 20.200418045)"><path d="m454.004 237.75c.003.412-.061 13.26-.141 28.549l-.146 27.799 7.156 9.084c9.255 11.75 10.229 15.447 4.729 17.954-4.496 2.048-6.963.258-20.004-14.505-59.248-67.079-136.358-76.259-198.635-23.649-11.016 9.306-16.821 16.215-9.8 11.663 61.113-39.619 187.289-5.422 232.009 62.881 5.111 7.806 6.677 9.53 8.313 9.152 1.108-.257 5.574-1.414 9.925-2.572 25.858-6.884 65.312 2.564 73.68 17.644 1.531 2.759 2.671 2.823 5.358.299 4.617-4.338 11.611-5.049 49.639-5.049h35.667l2.002-4.75c8.449-20.048 9.419-43.936 2.72-66.979-2.135-7.344-2.511-7.119-16.659 9.979-32.958 39.829-53.201 54.288-46.962 33.543 7.807-25.955 7.629-59.25-.452-84.949-3.259-10.364-3.076-10.086-5.714-8.695-11.748 6.193-33.842 34.519-48.018 61.561-8.657 16.514-9.85 17.964-13.946 16.936-2.208-.554-2.751-1.484-3.733-6.397-6.539-32.716-25.793-60.599-58.596-84.858-7.341-5.429-8.4-6.014-8.392-4.641z" fill="#7bd37f"/><path d="m433.413 267.364.006-1.162c.08-15.165.145-27.908.142-28.317l-.001-.027c-.038-6.605 2.79-10.954 5.412-13.718 3.814-4.021 8.941-6.909 16.65-6.479 1.72.097 7.838.848 19.304 9.327 25.856 19.122 44.11 40.345 55.341 63.964 15.751-24.864 35.504-47.049 46.529-52.862 5.735-3.023 10.296-3.336 13.576-3.043 5.427.483 11.547 2.133 16.543 10.126 1.036 1.656 2.642 5.349 5.071 13.073 4.81 15.298 7.143 32.98 6.983 50.575 1.603-1.839 3.209-3.724 4.798-5.645 8.834-10.676 13.989-15.918 16.802-17.819 4.544-3.069 8.624-3.92 11.864-4.122 7.19-.447 18.966 2.394 23.744 18.829 7.948 27.338 6.572 55.67-3.451 79.454l-2.003 4.751c-3.112 7.385-10.621 12.224-18.969 12.224h-35.667c-19.625 0-33.525.901-37.274 1.172-6.634 5.358-12.589 5.903-16.673 5.675-5.94-.332-13.522-2.385-19.12-12.474-.523-.941-1.875-1.37-3.168-2.104-2.257-1.281-4.884-2.392-7.727-3.358-11.907-4.045-27.415-5.665-39.218-2.523-4.641 1.235-9.408 2.463-10.59 2.737l-.017.005c-4.602 1.063-16.093 4.184-30.47-17.774-23.959-36.594-74.501-61.58-122.568-68.588-30.335-4.422-59.941-1.892-80.603 11.503-18.167 11.779-30.104-1.785-31.786-4.311-1.836-2.757-3.185-6.167-3.215-10.429-.016-2.191.281-5.475 2.355-9.38 1.276-2.402 7.55-9.937 17.393-18.252 36.072-30.473 76.614-42.565 116.543-37.812 28.559 3.401 57.083 15.583 83.464 36.784zm20.591-29.614c.003.412-.061 13.26-.141 28.549l-.146 27.799 7.156 9.084c9.255 11.75 10.229 15.447 4.729 17.954-4.496 2.048-6.963.258-20.004-14.505-59.248-67.079-136.358-76.259-198.635-23.649-11.016 9.306-16.821 16.215-9.8 11.663 61.113-39.619 187.289-5.422 232.009 62.881 5.111 7.806 6.677 9.53 8.313 9.152 1.108-.257 5.574-1.414 9.925-2.572 25.858-6.884 65.312 2.564 73.68 17.644 1.531 2.759 2.671 2.823 5.358.299 4.617-4.338 11.611-5.049 49.639-5.049h35.667l2.002-4.75c8.449-20.048 9.419-43.936 2.72-66.979-2.135-7.344-2.511-7.119-16.659 9.979-32.958 39.829-53.201 54.288-46.962 33.543 7.807-25.955 7.629-59.25-.452-84.949-3.259-10.364-3.076-10.086-5.714-8.695-11.748 6.193-33.842 34.519-48.018 61.561-8.657 16.514-9.85 17.964-13.946 16.936-2.208-.554-2.751-1.484-3.733-6.397-6.539-32.716-25.793-60.599-58.596-84.858-7.341-5.429-8.4-6.014-8.392-4.641z"/><g transform="matrix(.825554 0 0 1 80.0113 0)"><path d="m288 289.681c-14.765 2.411-36.307 8.389-37.565 10.424-.315.511 5.593.898 13.756.901 30.897.013 84.052 13.804 90.37 23.447 3.81 5.815-4.172 8.701-10.171 6.25-12.608-5.152-45.466 3.3-78.698 19.828-77.641 38.614-109.925 130.212-75.083 213.032 9.633 22.899 76.554 13.608 86.415 8.51 12.761-6.597 100.424-55.021 102.834-63.138 10.137-34.143 2.597-98.899 3.905-100.045 8.627-7.554 48.753-43.164 62.983-43.285 13.993-.12 14.06-.179 8.363-7.265-36.501-45.396-114.163-77.305-167.109-68.659z" fill="#7bd37f"/><path d="m450.809 385.037c-2.961 1.728-11.837 6.989-17.52 11.228-9.198 6.86-18.322 14.548-24.577 19.953.974 17.079 3.22 70.344-4.74 97.153-.945 3.183-6.298 10.999-18.105 19.217-24.823 17.278-84.725 50.338-95.248 55.778-7.686 3.973-41.801 11.26-70.77 8.946-25.731-2.055-46.08-11.769-52.749-27.622-38.617-91.793-.689-192.84 85.364-235.638 9.249-4.6 18.498-8.611 27.408-11.976-5.853-.971-11.272-1.575-15.693-1.577-10.201-.004-18.072-.894-20.455-1.462-3.359-.801-5.702-1.889-7.27-2.741-6.137-3.335-8.672-7.466-9.889-10.918-1.601-4.54-1.266-9.149 1.59-13.783l.012-.019c1.343-2.172 5.185-6.952 14.032-10.487 7.825-3.127 26.832-8.218 40.771-10.494 25.374-4.144 55.566-.998 85.365 8.332 41.926 13.126 83.087 38.379 107.699 68.989 12.589 15.657 5.286 25.711.629 29.757-2.902 2.521-7.241 5.223-14.463 6.525-2.307.416-5.998.711-11.391.839zm-162.809-95.356c-14.765 2.411-36.307 8.389-37.565 10.424-.315.511 5.593.898 13.756.901 30.897.013 84.052 13.804 90.37 23.447 3.81 5.815-4.172 8.701-10.171 6.25-12.608-5.152-45.466 3.3-78.698 19.828-77.641 38.614-109.925 130.212-75.083 213.032 9.633 22.899 76.554 13.608 86.415 8.51 12.761-6.597 100.424-55.021 102.834-63.138 10.137-34.143 2.597-98.899 3.905-100.045 8.627-7.554 48.753-43.164 62.983-43.285 13.993-.12 14.06-.179 8.363-7.265-36.501-45.396-114.163-77.305-167.109-68.659z"/></g></g><g transform="matrix(1.47493732154 0 0 1.52544863385 -363.942299464 -447.40327411)"><path d="m618.126 632.363c15.528-1.556 26.272 1.794 35.243 10.063 4.203 3.875 8.981 14.467 12.211 17.943 1.755 1.89 4.641 3.443 7.167 2.918 6.221-1.292 19.602-4.961 30.163-10.671 4.837-2.615 9.244-4.477 9.794-4.137 2.719 1.68-1.852 10.53-4.935 16.291-1.223 2.286-5.392 7.553-8.254 12.393-9.125 15.439-27.762 33.062-43.215 40.862-22.271 11.243-45.148 7.053-53.571-9.81-3.883-7.775-4.017-12.094-.593-19.129 3.594-7.386 13.382-17.332 21.955-22.312 6.801-3.95 8.252-6.779 5.099-9.932-1.419-1.419-2.893-1.692-6.607-1.224-6.634.837-20.26 5.356-26.674 8.846-10.074 5.484-32.469 23.638-43.577 35.328-30.721 32.33-46.676 46.392-63.738 56.175-18.072 10.363-39.017 14.235-50.904 9.411-12.686-5.149-20.128-19.195-20.028-37.798.068-12.523 4.99-25.242 14.041-36.287 2.879-3.515 14.472-13.446 19.172-16.425 3.762-2.385 4.949-6.849 2.328-8.765-3.991-2.918-13.194-1.301-20.344 3.577-2.044 1.394-12.102 6.771-22.351 11.949-10.25 5.179-25.342 13.934-33.539 19.455-8.198 5.523-17.97 11.502-21.717 13.289-6.374 3.041-7.556 3.247-18.342 3.197-10.339-.048-12.07-.337-16.77-2.794-11.225-5.871-19.36-18.134-19.379-29.214-.019-10.645 7.565-21.997 18.331-27.437 7.529-3.803 23.109-18.967 83.122-28.956 47.92-7.977 71.924 2.094 78.748 5.623 5.599 2.894 5.456 11.891 3.207 25.71-1.242 7.623-.461 10.741 4.231 10.73 10.618-.026 30.865-5.93 73.865-21.755 33.434-12.304 45.862-16.112 55.861-17.114zm-242.105 46.482c-12.5 2.511-20.391 5.306-22.441 7.95-2.529 3.264-2.486 5.125.161 6.859 2.243 1.47 3.466 1.542 8.59.513 10.724-2.153 25.172-10.439 28.871-16.557 1.121-1.856-.401-1.733-15.181 1.235zm111.333 35.738c-8.759 2.345-27.583 10.164-31.11 12.475-3.022 1.98-3.136 4.049-.374 6.811 6.538 6.538 25.731-.927 34.161-5.271 8.027-4.136 19.214-13.276 18.768-15.612-.446-2.335-14.521-.257-21.445 1.597z" fill="#55cce1"/><path d="m502.42 652.512c11.278-2.971 28.035-8.844 53.674-18.28 35.995-13.246 49.476-17.041 60.24-18.12 21.643-2.169 36.444 3.041 48.946 14.565l.002.002c2.551 2.352 5.433 6.204 8.057 10.475.91 1.48 1.754 3.057 2.545 4.478 5.564-1.576 12.608-4.006 18.573-7.231 7.484-4.046 14.778-6.127 16.769-6.26 5.123-.343 8.611 1.273 10.799 2.626 4.745 2.932 8.363 7.696 8.633 14.916.188 5.05-3.861 15.485-7.624 22.515-1.279 2.39-5.596 7.926-8.589 12.988-10.571 17.886-32.223 38.243-50.127 47.28-32.315 16.313-64.841 7.243-77.062-17.225-4.11-8.23-5.652-14.22-4.869-20.422-6.542 5.473-12.928 11.286-17.355 15.944-32.49 34.192-49.561 48.861-67.606 59.207-23.471 13.459-51.01 16.709-66.448 10.443-18.082-7.34-30.597-26.402-30.453-52.917.044-8.107 1.634-16.297 4.702-24.238-6.872 3.902-13.771 8.074-18.369 11.171-9.02 6.077-19.816 12.592-23.939 14.558-9.092 4.337-10.706 4.995-26.093 4.923-15.445-.072-17.906-1.136-24.927-4.808-16.623-8.693-28.248-27.104-28.276-43.513-.028-16.165 11.095-33.641 27.445-41.902 7.985-4.034 24.548-20.02 88.198-30.615 54.733-9.111 82.071 3.324 89.866 7.355 6.389 3.304 11.02 8.844 12.831 17.483.798 3.805.934 8.708.457 14.602zm115.706-20.149c-9.999 1.002-22.427 4.81-55.861 17.114-43 15.825-63.247 21.729-73.865 21.755-4.692.011-5.473-3.107-4.231-10.73 2.249-13.819 2.392-22.816-3.207-25.71-6.824-3.529-30.828-13.6-78.748-5.623-60.013 9.989-75.593 25.153-83.122 28.956-10.766 5.44-18.35 16.792-18.331 27.437.019 11.08 8.154 23.343 19.379 29.214 4.7 2.457 6.431 2.746 16.77 2.794 10.786.05 11.968-.156 18.342-3.197 3.747-1.787 13.519-7.766 21.717-13.289 8.197-5.521 23.289-14.276 33.539-19.455 10.249-5.178 20.307-10.555 22.351-11.949 7.15-4.878 16.353-6.495 20.344-3.577 2.621 1.916 1.434 6.38-2.328 8.765-4.7 2.979-16.293 12.91-19.172 16.425-9.051 11.045-13.973 23.764-14.041 36.287-.1 18.603 7.342 32.649 20.028 37.798 11.887 4.824 32.832.952 50.904-9.411 17.062-9.783 33.017-23.845 63.738-56.175 11.108-11.69 33.503-29.844 43.577-35.328 6.414-3.49 20.04-8.009 26.674-8.846 3.714-.468 5.188-.195 6.607 1.224 3.153 3.153 1.702 5.982-5.099 9.932-8.573 4.98-18.361 14.926-21.955 22.312-3.424 7.035-3.29 11.354.593 19.129 8.423 16.863 31.3 21.053 53.571 9.81 15.453-7.8 34.09-25.423 43.215-40.862 2.862-4.84 7.031-10.107 8.254-12.393 3.083-5.761 7.654-14.611 4.935-16.291-.55-.34-4.957 1.522-9.794 4.137-10.561 5.71-23.942 9.379-30.163 10.671-2.526.525-5.412-1.028-7.167-2.918-3.23-3.476-8.008-14.068-12.211-17.943-8.971-8.269-19.715-11.619-35.243-10.063zm-242.105 46.482c14.78-2.968 16.302-3.091 15.181-1.235-3.699 6.118-18.147 14.404-28.871 16.557-5.124 1.029-6.347.957-8.59-.513-2.647-1.734-2.69-3.595-.161-6.859 2.05-2.644 9.941-5.439 22.441-7.95zm111.333 35.738c6.924-1.854 20.999-3.932 21.445-1.597.446 2.336-10.741 11.476-18.768 15.612-8.43 4.344-27.623 11.809-34.161 5.271-2.762-2.762-2.648-4.831.374-6.811 3.527-2.311 22.351-10.13 31.11-12.475z"/></g><g transform="matrix(2.9437879174 0 0 3.0446020935 -519.372198448 -1010.965498705)"><path d="m278.629 463.626c-14.413-14.045-17.566-30.653-11.921-45.315 5.574-14.478 20.278-27.482 43.039-33.601 15.057-4.048 27.749-1.735 35.906 4.1 8.975 6.42 13.456 17.211 9.763 30.875-3.366 12.454-15.678 19.256-25.422 18.822-.148-.006-.294-.014-.441-.023 13.053 14.23 17.311 28.933 13.71 43.202-2.207 8.749-7.477 17.511-16.1 26.015-21.676 21.377-53.184 23.409-70.764 13.541-6.908-3.879-11.9-9.501-14.177-16.428-2.177-6.623-1.928-14.605 2.281-23.643 6.444-13.837 21.133-19.641 30.8-18.289 1.164.163 2.275.412 3.326.744zm9.914 9.003c.935 2.392 1.366 5.334.826 8.811 1.091-.524 2.143-1.227 2.735-2.139.461-.709.951-1.539 1.342-2.225-.194-.188-.392-.375-.579-.544l-.001-.001c-1.02-.922-2.561-2.313-4.323-3.902zm23.534-80.039c-39.145 10.524-51.772 43.321-25.718 66.802 4.338 3.909 9.924 8.947 12.413 11.196 5.139 4.641 5.204 5.991.631 13.026-6.306 9.702-23.156 9.757-19.471.064 6.694-17.607-19.361-16.837-27.581.815-15.925 34.198 37.818 47.913 68.639 17.517 7.394-7.292 12.032-14.737 13.925-22.239 3.787-15.007-3.412-30.239-21.507-44.921-9.452-7.669-10.245-13.297-2.441-17.333 6.231-3.222 9.692-1.561 10.717 5.144 1.934 12.657 21.694 8.755 25.417-5.019 5.303-19.622-11.231-31.449-35.024-25.052z" stroke="#000" stroke-width="5.31" transform="translate(7.60312 4.77531)"/><path d="m312.077 392.59c-39.145 10.524-51.772 43.321-25.718 66.802 4.338 3.909 9.924 8.947 12.413 11.196 5.139 4.641 5.204 5.991.631 13.026-6.306 9.702-23.156 9.757-19.471.064 6.694-17.607-19.361-16.837-27.581.815-15.925 34.198 37.818 47.913 68.639 17.517 7.394-7.292 12.032-14.737 13.925-22.239 3.787-15.007-3.412-30.239-21.507-44.921-9.452-7.669-10.245-13.297-2.441-17.333 6.231-3.222 9.692-1.561 10.717 5.144 1.934 12.657 21.694 8.755 25.417-5.019 5.303-19.622-11.231-31.449-35.024-25.052z" fill="#f8f1e8"/><path d="m278.629 463.626c-14.413-14.045-17.566-30.653-11.921-45.315 5.574-14.478 20.278-27.482 43.039-33.601 15.057-4.048 27.749-1.735 35.906 4.1 8.975 6.42 13.456 17.211 9.763 30.875-3.366 12.454-15.678 19.256-25.422 18.822-.148-.006-.294-.014-.441-.023 13.053 14.23 17.311 28.933 13.71 43.202-2.207 8.749-7.477 17.511-16.1 26.015-21.676 21.377-53.184 23.409-70.764 13.541-6.908-3.879-11.9-9.501-14.177-16.428-2.177-6.623-1.928-14.605 2.281-23.643 6.444-13.837 21.133-19.641 30.8-18.289 1.164.163 2.275.412 3.326.744zm9.914 9.003c.935 2.392 1.366 5.334.826 8.811 1.091-.524 2.143-1.227 2.735-2.139.461-.709.951-1.539 1.342-2.225-.194-.188-.392-.375-.579-.544l-.001-.001c-1.02-.922-2.561-2.313-4.323-3.902zm23.534-80.039c-39.145 10.524-51.772 43.321-25.718 66.802 4.338 3.909 9.924 8.947 12.413 11.196 5.139 4.641 5.204 5.991.631 13.026-6.306 9.702-23.156 9.757-19.471.064 6.694-17.607-19.361-16.837-27.581.815-15.925 34.198 37.818 47.913 68.639 17.517 7.394-7.292 12.032-14.737 13.925-22.239 3.787-15.007-3.412-30.239-21.507-44.921-9.452-7.669-10.245-13.297-2.441-17.333 6.231-3.222 9.692-1.561 10.717 5.144 1.934 12.657 21.694 8.755 25.417-5.019 5.303-19.622-11.231-31.449-35.024-25.052z"/></g><g transform="matrix(1.15073323694 0 0 1.08811876905 98.59846653 162.704548295)"><path d="m357.641 105.634 98.431-4.197 13.375 13.684-40.623 69.31 29.676 5.569 6 2 23.5 21.5v5l-163.317 155.92-8.278.044-9.348-14.25 28.405-101.714-19.681-2.76-11.781-14.24-4.719-7.932z"/><path d="m354.945 110.213 98.432-4.196 13.375 13.683-37.928 64.731 29.676 5.569 6 2 23.5 21.5v5l-163.317 155.92-8.278.044-9.348-14.25 28.405-101.714-19.681-2.76-16.639-15.767.139-6.405z" transform="matrix(1.10196 0 0 1.07833 -39.7167 -21.8029)"/><path d="m368.5 118.5 69.068 2.009-45.068 72.888 60 7-128.974 152.536v-4l34.974-115.433-44-.5z" fill="#fe0"/></g><path d="m12 3-1.912 5.813c-.198.603-.672 1.077-1.275 1.275l-5.813 1.912 5.813 1.912c.603.198 1.077.672 1.275 1.275l1.777 6.686 2.365-6.178c.199-.603.672-1.077 1.275-1.275l5.495-2.42-5.813-1.912c-.603-.198-1.077-.672-1.275-1.275z" fill="none" stroke="#000" stroke-linecap="round" stroke-miterlimit="4" stroke-width="2" transform="matrix(9.61928227793 .71454802274 -.72459540143 9.48588325341 10.12426787777 266.29521612502)"/><path d="m12.95 2.688 1.912 5.813c.099.301.336.538.637.637l5.813 1.912c.411.135.688.518.688.95s-.277.815-.688.95l-5.813 1.912c-.301.099-.538.336-.637.637l-1.912 5.813c-.135.411-.518.688-.95.688s-.815-.277-.95-.688l-1.912-5.813c-.099-.301-.336-.538-.637-.637l-5.813-1.912c-.411-.135-.688-.518-.688-.95s.277-.815.688-.95l5.813-1.912c.301-.099.538-.336.637-.637l1.912-5.813c.135-.411.518-.688.95-.688s.815.277.95.688z" fill="#fd0" transform="matrix(9.61928227793 .71454802274 -.72459540143 9.48588325341 5.86822504795 260.70956939419)"/><g fill="none" stroke="#000" stroke-linecap="round" stroke-miterlimit="4" stroke-width="2"><path d="m12 3-1.912 5.813c-.198.603-.672 1.077-1.275 1.275l-5.813 1.912 5.813 1.912c.603.198 1.077.672 1.275 1.275l1.912 5.813 1.912-5.813c.198-.603.672-1.077 1.275-1.275l5.813-1.912-5.813-1.912c-.603-.198-1.077-.672-1.275-1.275z" transform="matrix(9.61928227793 .71454802274 -.72459540143 9.48588325341 5.86822504795 260.70956939419)"/><path d="m5 3v4" transform="matrix(9.61928227793 .71454802274 -.72459540143 9.48588325341 5.86822504795 260.70956939419)"/><path d="m19 17v4" transform="matrix(9.61928227793 .71454802274 -.72459540143 9.48588325341 5.86822504795 260.70956939419)"/><path d="m3 5h4" transform="matrix(9.61928227793 .71454802274 -.72459540143 9.48588325341 5.86822504795 260.70956939419)"/><path d="m17 19h4" transform="matrix(9.61928227793 .71454802274 -.72459540143 9.48588325341 5.86822504795 260.70956939419)"/><path d="m13.009 2.767-2.921 6.046c-.198.603-.672 1.077-1.275 1.275l-5.829 1.667 5.829 2.157c.603.198 1.077.672 1.275 1.275l2.671 6.302 2.366-6.178c.198-.603.672-1.077 1.275-1.275l4.6-2.036-5.813-1.912c-.603-.198-1.077-.672-1.275-1.275z" transform="matrix(-2.2078912052 -6.09188154202 6.17753576784 -2.17726861475 180.24790353436 404.09760958968)"/></g><path d="m12.95 2.688 1.912 5.813c.099.301.336.538.637.637l5.813 1.912c.411.135.688.518.688.95s-.277.815-.688.95l-5.813 1.912c-.301.099-.538.336-.637.637l-1.912 5.813c-.135.411-.518.688-.95.688s-.815-.277-.95-.688l-1.912-5.813c-.099-.301-.336-.538-.637-.637l-5.813-1.912c-.411-.135-.688-.518-.688-.95s.277-.815.688-.95l5.813-1.912c.301-.099.538-.336.637-.637l1.912-5.813c.135-.411.518-.688.95-.688s.815.277.95.688z" fill="#ffce00" transform="matrix(-2.2078912052 -6.09188154202 6.17753576784 -2.17726861475 174.53411432871 398.27844238962)"/><path d="m12 3-1.912 5.813c-.198.603-.672 1.077-1.275 1.275l-5.813 1.912 5.813 1.912c.603.198 1.077.672 1.275 1.275l1.912 5.813 1.912-5.813c.198-.603.672-1.077 1.275-1.275l5.813-1.912-5.813-1.912c-.603-.198-1.077-.672-1.275-1.275z" fill="none" stroke="#000" stroke-linecap="round" stroke-miterlimit="4" stroke-width="2" transform="matrix(-2.2078912052 -6.09188154202 6.17753576784 -2.17726861475 174.53411432871 398.27844238962)"/><path d="m5 3v4" fill="none" stroke="#000" stroke-linecap="round" stroke-miterlimit="4" stroke-width="2" transform="matrix(-2.2078912052 -6.09188154202 6.17753576784 -2.17726861475 174.53411432871 398.27844238962)"/><path d="m19 17v4" fill="none" stroke="#000" stroke-linecap="round" stroke-miterlimit="4" stroke-width="2" transform="matrix(-2.2078912052 -6.09188154202 6.17753576784 -2.17726861475 174.53411432871 398.27844238962)"/><path d="m3 5h4" fill="none" stroke="#000" stroke-linecap="round" stroke-miterlimit="4" stroke-width="2" transform="matrix(-2.2078912052 -6.09188154202 6.17753576784 -2.17726861475 174.53411432871 398.27844238962)"/><path d="m17 19h4" fill="none" stroke="#000" stroke-linecap="round" stroke-miterlimit="4" stroke-width="2" transform="matrix(-2.2078912052 -6.09188154202 6.17753576784 -2.17726861475 174.53411432871 398.27844238962)"/></g></svg>