<?xml version="1.0" standalone="no"?>
<!DOCTYPE svg PUBLIC "-//W3C//DTD SVG 20010904//EN"
 "http://www.w3.org/TR/2001/REC-SVG-20010904/DTD/svg10.dtd">
<svg version="1.0" xmlns="http://www.w3.org/2000/svg"
 width="256.000000pt" height="256.000000pt" viewBox="0 0 256.000000 256.000000"
 preserveAspectRatio="xMidYMid meet">
<metadata>
Created by potrace 1.14, written by Peter Selinger 2001-2017
</metadata>
<g transform="translate(0.000000,256.000000) scale(0.100000,-0.100000)"
fill="#000000" stroke="none">
<path d="M1278 2452 c-7 -105 -66 -191 -173 -252 -150 -86 -226 -232 -222
-427 2 -79 -5 -83 -24 -11 -9 34 -10 70 -3 138 5 50 6 96 3 102 -8 12 -59 -54
-91 -117 -65 -125 -62 -319 6 -454 l25 -48 -43 -6 c-214 -30 -398 -231 -505
-552 -40 -121 -85 -308 -96 -400 -4 -27 -8 -57 -11 -67 -7 -24 30 -29 217 -29
258 -1 405 20 571 81 180 65 297 166 349 299 10 25 18 39 19 30 0 -33 70 -155
114 -201 88 -93 230 -162 382 -187 123 -19 320 -10 514 24 58 10 59 13 55 163
-4 161 -9 209 -35 320 -51 216 -158 376 -309 458 -163 89 -363 78 -519 -27
-41 -28 -55 -32 -112 -31 -157 1 -290 104 -307 237 -18 148 137 260 284 204
13 -5 41 -26 62 -48 94 -96 66 -249 -56 -312 l-38 -19 70 4 c124 7 214 47 298
133 88 90 129 189 130 312 0 107 -39 187 -145 295 -74 75 -107 95 -74 44 10
-15 14 -42 12 -79 -3 -68 -31 -110 -93 -140 -138 -67 -289 74 -229 214 19 44
56 76 107 92 l44 13 -1 53 c-2 89 -67 194 -145 235 l-27 13 -4 -57z m-294
-1263 c99 -49 156 -139 157 -248 1 -61 -28 -146 -60 -175 -16 -15 -17 -14 -13
13 2 16 -3 53 -12 83 -54 188 -273 260 -433 142 -30 -22 -30 -5 1 62 61 131
230 189 360 123z m814 -31 c185 1 222 -2 222 -13 0 -15 -3 -16 -110 -35 -36
-7 -72 -13 -80 -15 -8 -1 -48 -8 -87 -15 -40 -6 -73 -15 -73 -18 0 -5 44 -49
147 -145 35 -33 30 -32 266 -36 42 -1 57 -5 57 -15 0 -14 -16 -19 -152 -47
l-57 -12 132 -128 c101 -98 129 -131 120 -140 -15 -15 -16 -15 -173 100 l-135
100 -3 -97 c-1 -53 -5 -103 -8 -111 -10 -30 -32 14 -48 99 -9 47 -18 94 -20
105 -12 59 -21 77 -50 97 -17 12 -33 25 -36 28 -3 3 -36 27 -73 54 l-68 48 3
-179 c3 -153 1 -178 -12 -178 -15 0 -30 54 -44 160 -4 22 -15 92 -26 155 -18
103 -23 117 -47 135 -15 11 -39 30 -53 42 l-25 22 25 1 c14 0 54 11 90 24 36
13 72 22 80 18 8 -3 115 -5 238 -4z"/>
<path d="M1040 2369 c-309 -65 -579 -253 -752 -524 -66 -102 -126 -245 -147
-346 -6 -30 -14 -65 -16 -79 -14 -67 -21 -265 -12 -330 15 -97 30 -171 37
-175 5 -3 14 10 20 29 17 54 66 150 112 223 25 40 43 81 45 102 17 252 106
454 275 625 39 39 81 87 94 106 36 57 81 100 123 118 22 10 60 41 85 69 26 28
84 76 131 107 46 31 89 65 95 76 6 11 9 20 8 19 -2 0 -46 -9 -98 -20z"/>
<path d="M1565 2322 c10 -57 13 -62 39 -62 27 0 114 -55 164 -103 43 -42 93
-110 128 -174 16 -28 43 -66 59 -85 103 -114 156 -195 204 -308 33 -77 35 -83
58 -205 12 -58 24 -90 46 -118 66 -85 101 -149 137 -248 20 -58 24 -56 39 31
10 59 7 309 -4 375 -50 283 -225 564 -460 739 -74 56 -229 137 -315 166 -103
35 -102 35 -95 -8z"/>
<path d="M905 279 c-49 -15 -123 -33 -164 -40 -69 -11 -73 -13 -55 -26 30 -24
153 -79 237 -108 218 -73 494 -71 727 5 69 23 227 98 236 112 3 4 -10 8 -28 9
-70 2 -148 17 -236 45 -71 24 -82 25 -137 14 -33 -7 -73 -14 -90 -16 -43 -5
-245 -5 -253 0 -4 2 -23 7 -42 10 -19 3 -51 10 -70 16 -19 5 -35 10 -35 9 0
-1 -40 -14 -90 -30z"/>
</g>
</svg>
