<?xml version="1.0" encoding="UTF-8" standalone="no"?>
<!DOCTYPE svg PUBLIC "-//W3C//DTD SVG 1.1//EN" "http://www.w3.org/Graphics/SVG/1.1/DTD/svg11.dtd">
<svg width="100%" height="100%" viewBox="0 0 690 690" version="1.1" xmlns="http://www.w3.org/2000/svg" xmlns:xlink="http://www.w3.org/1999/xlink" xml:space="preserve" xmlns:serif="http://www.serif.com/" style="fill-rule:evenodd;clip-rule:evenodd;stroke-linejoin:round;stroke-miterlimit:2;">
    <g transform="matrix(1,0,0,1,17,2)">
        <g id="Untitled">
            <g>
                <g>
                    <clipPath id="_clip1">
                        <rect x="0" y="0" width="656" height="686"/>
                    </clipPath>
                    <g clip-path="url(#_clip1)">
                        <g>
                            <g>
                                <path d="M327.74,30.012C146.855,30.012 -0.001,176.867 -0.001,357.753C-0.001,538.638 146.855,685.493 327.74,685.493C508.624,685.493 655.48,538.638 655.48,357.753C655.48,176.867 508.624,30.012 327.74,30.012ZM327.74,60.012C163.413,60.012 30,193.425 30,357.753C30,522.08 163.413,655.494 327.74,655.494C492.067,655.494 625.48,522.08 625.48,357.753C625.48,193.425 492.067,60.012 327.74,60.012ZM327.74,115.012C461.712,115.012 570.481,223.78 570.481,357.753C570.481,491.725 461.712,600.493 327.74,600.493C193.767,600.493 84.999,491.725 84.999,357.753C84.999,223.78 193.767,115.012 327.74,115.012ZM327.74,145.011C445.155,145.011 540.48,240.338 540.48,357.753C540.48,475.167 445.155,570.494 327.74,570.494C210.325,570.494 114.999,475.167 114.999,357.753C114.999,240.338 210.325,145.011 327.74,145.011Z"/>
                                <path d="M327.74,60.012C163.413,60.012 30,193.425 30,357.753C30,522.08 163.413,655.494 327.74,655.494C492.067,655.494 625.48,522.08 625.48,357.753C625.48,193.425 492.067,60.012 327.74,60.012ZM327.74,115.012C461.712,115.012 570.481,223.78 570.481,357.753C570.481,491.725 461.712,600.493 327.74,600.493C193.767,600.493 84.999,491.725 84.999,357.753C84.999,223.78 193.767,115.012 327.74,115.012Z" style="fill:#b5d263;"/>
                            </g>
                            <g>
                                <g>
                                    <path d="M344.661,352.252C342.699,352.25 340.725,352.449 338.77,352.846C330.518,354.522 323.349,359.589 319.016,366.811C317.497,369.342 316.074,371.972 314.756,374.605C281.98,439.65 298.365,519.355 354.146,566.196C354.177,566.222 354.208,566.248 354.239,566.274C414.91,616.804 519.24,620.871 610.586,598.564C623.27,595.466 632.494,584.52 633.397,571.494C639.908,477.538 617.366,375.67 557.153,324.929C557.138,324.916 557.122,324.903 557.107,324.89C501.288,278.042 419.904,275.732 361.519,319.328C359.198,321.046 356.883,322.869 354.663,324.786C348.278,330.3 344.51,338.248 344.282,346.681C344.231,348.56 344.357,350.425 344.661,352.252ZM373.438,543.222C328.268,505.291 315.006,440.743 341.561,388.076C342.545,386.107 343.605,384.138 344.741,382.245L376.543,405.415L394.715,513.692C395.092,515.643 396.816,517.066 398.804,517.066C401.075,517.066 402.949,515.207 402.967,512.935L401.983,424.042L454.986,462.885L468.842,531.637C469.08,533.907 471.11,535.598 473.385,535.423C475.485,535.237 477.114,533.458 477.114,531.35C477.114,531.218 477.108,531.087 477.095,530.955L478.382,479.922L550.39,532.924C552.681,534.734 556.031,534.432 557.962,532.243C559.811,529.965 559.506,526.582 557.28,524.671L492.92,462.809L542.97,452.739C545.24,452.501 546.931,450.471 546.756,448.196C546.57,446.096 544.79,444.466 542.683,444.466C542.551,444.466 542.419,444.473 542.288,444.486L472.098,442.744L424.623,397.313L512.758,381.867C515.018,381.63 516.687,379.585 516.469,377.324C516.324,375.231 514.563,373.587 512.465,373.587C512.31,373.587 512.155,373.596 512.001,373.614L402.589,374.749L374.271,347.491C375.937,346.052 377.679,344.689 379.42,343.402C426.694,308.068 492.613,309.927 537.821,347.869C591.732,393.3 609.299,485.298 603.468,569.42C521.617,589.41 427.803,588.501 373.438,543.222Z"/>
                                    <path d="M373.438,543.222C328.268,505.291 315.006,440.743 341.561,388.076C342.545,386.107 343.605,384.138 344.741,382.245L376.543,405.415L394.715,513.692C395.092,515.643 396.816,517.066 398.804,517.066C401.075,517.066 402.949,515.207 402.967,512.935L401.983,424.042L454.986,462.885L468.842,531.637C469.08,533.907 471.11,535.598 473.385,535.423C475.485,535.237 477.114,533.458 477.114,531.35C477.114,531.218 477.108,531.087 477.095,530.955L478.382,479.922L550.39,532.924C552.681,534.734 556.031,534.432 557.962,532.243C559.811,529.965 559.506,526.582 557.28,524.671L492.92,462.809L542.97,452.739C545.24,452.501 546.931,450.471 546.756,448.196C546.57,446.096 544.79,444.466 542.683,444.466C542.551,444.466 542.419,444.473 542.288,444.486L472.098,442.744L424.623,397.313L512.758,381.867C515.018,381.63 516.687,379.585 516.469,377.324C516.324,375.231 514.563,373.587 512.465,373.587C512.31,373.587 512.155,373.596 512.001,373.614L402.589,374.749L374.271,347.491C375.937,346.052 377.679,344.689 379.42,343.402C426.694,308.068 492.613,309.927 537.821,347.869C591.732,393.3 609.299,485.298 603.468,569.42C521.617,589.41 427.803,588.501 373.438,543.222Z" style="fill:#89e4f2;fill-rule:nonzero;"/>
                                </g>
                                <g>
                                    <path d="M9.225,579.514C7.768,595.653 19.39,610.032 35.477,611.991C35.477,611.991 100.737,619.981 171.938,610.819C222.322,604.336 275.187,588.921 312.533,558.427C377.537,505.737 387.531,408.514 334.476,343.002C281.407,277.473 184.193,267.056 119.143,319.737C81.697,350.063 55.681,398.589 38.861,446.48C15.086,514.175 9.225,579.514 9.225,579.514ZM39.104,582.212C39.104,582.212 54.602,410.61 138.024,343.05C190.331,300.689 268.489,309.19 311.162,361.883C353.836,414.575 345.909,492.793 293.601,535.155C210.48,603.085 39.104,582.212 39.104,582.212ZM286.454,459.637C298.425,435.178 295.034,405.745 277.792,384.455C253.506,354.467 209.025,349.629 179.257,373.737C165.219,385.106 156.159,401.529 153.996,419.527C156.171,417.198 158.505,415.022 160.981,413.017C190.508,389.105 234.626,393.903 258.714,423.647C271.143,438.995 276.537,458.881 273.544,478.322C278.874,472.875 283.239,466.558 286.454,459.637Z"/>
                                    <path d="M39.104,582.212C39.104,582.212 54.603,410.61 138.024,343.05C190.331,300.689 268.489,309.19 311.162,361.883C353.836,414.575 345.909,492.793 293.601,535.155C210.48,603.085 39.104,582.212 39.104,582.212ZM286.454,459.637C298.425,435.178 295.034,405.745 277.792,384.455C253.506,354.467 209.025,349.629 179.257,373.737C165.219,385.106 156.159,401.529 153.996,419.527C156.171,417.198 158.505,415.022 160.981,413.017C190.508,389.105 234.626,393.903 258.714,423.647C271.143,438.995 276.537,458.881 273.544,478.322C278.874,472.875 283.239,466.558 286.454,459.637Z" style="fill:#89e4f2;fill-rule:nonzero;"/>
                                </g>
                                <g>
                                    <path d="M220.559,127.635C215.56,127.692 204.66,129.007 192.872,142.317C167.821,170.602 154.469,207.136 155.413,244.635C155.702,338.862 234.374,416.559 330.221,416.559C389.571,416.559 444.962,386.727 477.086,337.627C484.826,325.798 483.207,310.305 473.535,300.333C489.689,277.163 499.177,249.19 499.203,219.237C499.221,210.014 498.333,200.81 496.551,191.755C496.27,190.325 495.884,188.918 495.398,187.544C482.285,150.476 456.742,118.869 422.954,98.003C416.77,94.184 409.668,92.859 402.903,93.841C401.179,53.998 376.422,18.206 338.943,2.364C328.842,-1.905 317.215,-0.322 308.623,6.492C300.03,13.307 295.841,24.267 297.697,35.076C298.075,37.279 298.279,39.509 298.307,41.743C298.212,58.892 287.979,74.398 272.251,81.656C271.902,81.818 271.554,81.986 271.211,82.161C247.876,94.041 231.696,110.144 220.559,127.635ZM328.568,232.034C300.323,232.034 277.08,254.903 277.08,282.693C277.08,288.855 281.516,334.037 335.787,346.873C380.839,357.656 441.111,330.956 451.983,321.202C425.356,361.897 379.412,386.559 330.221,386.559C250.822,386.559 185.471,322.308 185.412,244.186C184.578,214.144 195.263,184.866 215.331,162.208C235.398,139.549 204.111,206.449 228.637,239.993C228.637,239.993 210.025,146.975 284.821,108.896C311.264,96.694 328.248,70.457 328.307,41.721C328.278,37.792 327.929,33.872 327.264,29.998C355.012,41.726 373.065,68.741 373.011,98.456C373.011,101.622 372.402,107.869 372.402,107.869C348.988,108.476 330.063,127.595 330.063,150.64C330.063,174.112 349.694,193.427 373.55,193.427C397.405,193.427 417.036,174.112 417.036,150.64C417.036,140.758 413.556,131.173 407.192,123.529C435.13,140.782 456.273,166.899 467.116,197.549C468.519,204.683 469.219,211.933 469.202,219.199C469.155,281.74 416.919,333.213 353.356,333.353C348.528,333.346 343.705,333.031 338.918,332.411C362.994,327.781 380.527,306.831 380.527,282.693C380.527,254.903 357.285,232.034 329.04,232.034L328.568,232.034ZM329.04,262.035L328.568,262.035C316.913,262.035 307.081,271.226 307.081,282.693C307.081,285.197 309.317,297.996 321.68,307.864C325.055,305.482 328.971,303.775 333.251,302.952C343.139,301.05 350.527,292.606 350.527,282.693C350.527,271.226 340.696,262.035 329.04,262.035ZM380.295,136.812C378.016,137.437 375.634,137.795 373.181,137.859C366.056,138.043 360.063,143.626 360.063,150.64C360.063,157.79 366.283,163.426 373.55,163.426C380.817,163.426 387.036,157.79 387.036,150.64C387.036,147.751 385.996,144.958 384.135,142.722C382.598,140.876 381.316,138.891 380.295,136.812Z"/>
                                    <path d="M328.568,232.034C300.323,232.034 277.08,254.903 277.08,282.693C277.08,288.855 281.516,334.037 335.787,346.873C380.839,357.656 441.111,330.956 451.983,321.202C425.356,361.897 379.412,386.559 330.221,386.559C250.822,386.559 185.471,322.308 185.412,244.186C184.578,214.144 195.263,184.866 215.331,162.208C235.398,139.549 204.111,206.449 228.637,239.993C228.637,239.993 210.025,146.975 284.821,108.896C311.264,96.694 328.248,70.457 328.307,41.721C328.278,37.792 327.929,33.872 327.264,29.998C355.012,41.726 373.065,68.741 373.011,98.456C373.011,101.622 372.402,107.869 372.402,107.869C348.988,108.476 330.063,127.595 330.063,150.64C330.063,174.112 349.694,193.427 373.55,193.427C397.405,193.427 417.036,174.112 417.036,150.64C417.036,140.758 413.556,131.173 407.192,123.529C435.13,140.782 456.273,166.899 467.116,197.549C468.519,204.683 469.219,211.933 469.202,219.199C469.155,281.74 416.919,333.213 353.356,333.353C348.528,333.346 343.705,333.031 338.918,332.411C362.994,327.781 380.527,306.831 380.527,282.693C380.527,254.903 357.285,232.034 329.04,232.034L328.568,232.034Z" style="fill:#89e4f2;fill-rule:nonzero;"/>
                                </g>
                            </g>
                        </g>
                    </g>
                </g>
            </g>
        </g>
    </g>
</svg>
